<svg version="1.1" id="Layer_1" xmlns="http://www.w3.org/2000/svg" xmlns:xlink="http://www.w3.org/1999/xlink" x="0px" y="0px" width="848px" height="500px" viewBox="-13 0 874 500" preserveAspectRatio="xMinYMin meet" enable-background="new 0 0 847 500" xml:space="preserve">

<g transform="translate(0,480)" style="stroke-width: 1px; font-size: 10px; font-family: Arial,Helvetica;" class="x axis">
<g transform="translate(0,0)" style="opacity: 1;" class="tick"><line style="shape-rendering: crispedges; fill: none; stroke: rgb(204, 204, 204);" x2="0" y2="-480"></line><text style="text-anchor: middle;" dy=".71em" x="0" y="3">2005</text></g>
<g transform="translate(106,0)" style="opacity: 1;" class="tick"><line style="shape-rendering: crispedges; fill: none; stroke: rgb(204, 204, 204);" x2="0" y2="-480"></line><text style="text-anchor: middle;" dy=".71em" x="0" y="3">2006</text></g>
<g transform="translate(212,0)" style="opacity: 1;" class="tick"><line style="shape-rendering: crispedges; fill: none; stroke: rgb(204, 204, 204);" x2="0" y2="-480"></line><text style="text-anchor: middle;" dy=".71em" x="0" y="3">2007</text></g>
<g transform="translate(318,0)" style="opacity: 1;" class="tick"><line style="shape-rendering: crispedges; fill: none; stroke: rgb(204, 204, 204);" x2="0" y2="-480"></line><text style="text-anchor: middle;" dy=".71em" x="0" y="3">2008</text></g>
<g transform="translate(424,0)" style="opacity: 1;" class="tick"><line style="shape-rendering: crispedges; fill: none; stroke: rgb(204, 204, 204);" x2="0" y2="-480"></line><text style="text-anchor: middle;" dy=".71em" x="0" y="3">2009</text></g>
<g transform="translate(530,0)" style="opacity: 1;" class="tick"><line style="shape-rendering: crispedges; fill: none; stroke: rgb(204, 204, 204);" x2="0" y2="-480"></line><text style="text-anchor: middle;" dy=".71em" x="0" y="3">2010</text></g>
<g transform="translate(636,0)" style="opacity: 1;" class="tick"><line style="shape-rendering: crispedges; fill: none; stroke: rgb(204, 204, 204);" x2="0" y2="-480"></line><text style="text-anchor: middle;" dy=".71em" x="0" y="3">2011</text></g>
<g transform="translate(742,0)" style="opacity: 1;" class="tick"><line style="shape-rendering: crispedges; fill: none; stroke: rgb(204, 204, 204);" x2="0" y2="-480"></line><text style="text-anchor: middle;" dy=".71em" x="0" y="3">2012</text></g>
<g transform="translate(848,0)" style="opacity: 1;" class="tick"><line style="shape-rendering: crispedges; fill: none; stroke: rgb(204, 204, 204);" x2="0" y2="-480"></line><text style="text-anchor: middle;" dy=".71em" x="0" y="3">2013</text></g>
<path style="shape-rendering: crispedges; fill: none; stroke: rgb(204, 204, 204);" d="M0,-480V0H848V-480" class="domain"></path></g>

<path style="fill-opacity: 0.5; fill: rgb(150,150,150);" title="Eastern Europe" d="M0,416.35517193150713L17.666666666666664,416.5509800395612C35.33333333333333,416.74678814761535,70.66666666666666,417.13840436372357,105.99999999999999,416.85441600564775C141.33333333333331,416.57042764757205,176.66666666666663,415.6108347153123,211.99999999999997,409.43288910201335C247.33333333333331,403.2549434887144,282.66666666666663,391.8586451943762,318,385.0943408792716C353.3333333333333,378.33003656416713,388.66666666666663,376.19772622829623,423.99999999999994,372.8090471338088C459.33333333333326,369.42036803932143,494.66666666666663,364.77532018621747,530,363.51868502201177C565.3333333333333,362.262049857806,600.6666666666666,364.3938273824985,636,365.49541449379615C671.3333333333333,366.5970016050937,706.6666666666666,366.66839830299637,742,367.71217540143994C777.3333333333333,368.7559524998834,812.6666666666665,370.77210999886773,830.3333333333333,371.78018874835993L848,372.7882674978521L848,394.73156306819317L830.3333333333331,393.80393880663615C812.6666666666665,392.87631454507914,777.3333333333333,391.0210660219651,742,390.05561216674323C706.6666666666666,389.09015831152135,671.3333333333333,389.0144991241916,636,388.0850100235103C600.6666666666666,387.15552092282894,565.3333333333333,385.372201908796,530,387.31882754900187C494.66666666666663,389.26545318920785,459.33333333333326,394.94202348365263,423.99999999999994,400.06979826436753C388.66666666666663,405.19757304508244,353.3333333333333,409.77655231206745,317.99999999999994,417.3672467648371C282.66666666666663,424.95794121760673,247.33333333333331,435.560350856161,211.99999999999997,439.4131084870161C176.66666666666663,443.26586611787116,141.33333333333331,440.3689717410271,105.99999999999999,436.9206177945613C70.66666666666666,433.4722638480955,35.33333333333333,429.47245033200795,17.666666666666664,427.4725435739642L0,425.4726368159204Z" class="layer"></path>
<path style="fill-opacity: 0.5; fill: rgb(150,150,150);" title="Africa" d="M0,427.7718036324402L17.666666666666664,432.4537786302756C35.33333333333333,437.1357536281111,70.66666666666666,446.499703623782,105.99999999999999,453.57426721812624C141.33333333333331,460.64883081247046,176.66666666666663,465.43400800548795,211.99999999999997,467.5945573338129C247.33333333333331,469.75510666213773,282.66666666666663,469.29102812577,318,464.59456399395253C353.3333333333333,459.89809986213504,388.66666666666663,450.96925013486776,423.99999999999994,442.0766315677302C459.33333333333326,433.1840130005927,494.66666666666663,424.3276255935849,530,418.61136086635094C565.3333333333333,412.89509613911696,600.6666666666666,410.3189540916568,636,409.04473615856455C671.3333333333333,407.7705182254723,706.6666666666666,407.79822440674803,742,408.76687512904016C777.3333333333333,409.73552585133234,812.6666666666665,411.6451211146409,830.3333333333333,412.5999187462952L848,413.5547163779496L848,424.0628184379308L830.3333333333331,422.9535055645467C812.6666666666665,421.8441926911626,777.3333333333333,419.62556694439445,742,418.4768260438104C706.6666666666666,417.3280851432263,671.3333333333333,417.24922908882627,636,418.2128181049238C600.6666666666666,419.1764071210214,565.3333333333333,421.18244120761653,530,426.2641278214017C494.66666666666663,431.34581443518687,459.33333333333326,439.503153576162,423.99999999999994,448.02973086375346C388.66666666666663,456.556308151345,353.3333333333333,465.45212358555284,317.99999999999994,469.88484618407296C282.66666666666663,474.31756878259307,247.33333333333331,474.2871985454255,211.99999999999997,471.52830226378154C176.66666666666663,468.7694059821375,141.33333333333331,463.28198365601713,105.99999999999999,455.7011462100475C70.66666666666666,448.1203087640779,35.33333333333333,438.44605619825904,17.666666666666664,433.6089299153496L0,428.7718036324402Z" class="layer"></path><path style="fill-opacity: 0.5; fill: rgb(150,150,150);" title="Western Europe" d="M0,237.53841235589127L17.666666666666664,233.88039721073352C35.33333333333333,230.22238206557574,70.66666666666666,222.90635177526025,105.99999999999999,216.0597281330962C141.33333333333331,209.21310449093218,176.66666666666663,202.83588749691964,211.99999999999997,199.66512817438905C247.33333333333331,196.49436885185847,282.66666666666663,196.53006720080984,318,197.16437890866945C353.3333333333333,197.7986906165291,388.66666666666663,199.031615683297,423.99999999999994,200.1190832983675C459.33333333333326,201.2065509134381,494.66666666666663,202.1485610768113,530,203.13985627418452C565.3333333333333,204.13115147155779,600.6666666666666,205.17173170293105,636,204.7734553470931C671.3333333333333,204.37517899125518,706.6666666666666,202.53804604820604,742,200.926292233611C777.3333333333333,199.314538419016,812.6666666666665,197.92816373287513,830.3333333333333,197.2349763898047L848,196.54178904673427L848,270.4501588443326L830.3333333333331,270.5673773035758C812.6666666666665,270.6845957628191,777.3333333333333,270.9190326813056,742,271.67828861049503C706.6666666666666,272.43754453968444,671.3333333333333,273.7216194795767,636,273.4847849107874C600.6666666666666,273.24795034199815,565.3333333333333,271.4902062645274,530,271.6231426535328C494.66666666666663,271.75607904253826,459.33333333333326,273.7796958980199,423.99999999999994,275.02221156599865C388.66666666666663,276.2647272339774,353.3333333333333,276.72614171445315,317.99999999999994,276.47065875442064C282.66666666666663,276.21517579438813,247.33333333333331,275.24279539384736,211.99999999999997,277.14386567830195C176.66666666666663,279.0449359627565,141.33333333333331,283.81945693220644,105.99999999999999,288.128833742932C70.66666666666666,292.4382105536574,35.33333333333333,296.28244320565847,17.666666666666664,298.204559531659L0,300.1266758576595Z" class="layer"></path><path style="fill-opacity: 0.5; fill: rgb(150,150,150);" title="Southern Europe" d="M0,302.68416951387644L17.666666666666664,300.7620531878759C35.33333333333333,298.8399368618754,70.66666666666666,294.99570420987436,105.99999999999999,290.68632739914887C141.33333333333331,286.37695058842337,176.66666666666663,281.6024296189734,211.99999999999997,279.7013593345188C247.33333333333331,277.80028905006424,282.66666666666663,278.772669450605,318,279.0281524106375C353.3333333333333,279.28363537067,388.66666666666663,278.8222208901943,423.99999999999994,277.5797052222156C459.33333333333326,276.33718955423683,494.66666666666663,274.3135726987552,530,274.18063630974973C565.3333333333333,274.0476999207443,600.6666666666666,275.8054439982151,636,276.04227856700436C671.3333333333333,276.2791131357936,706.6666666666666,274.9950381959013,742,274.23578226671196C777.3333333333333,273.47652633752256,812.6666666666665,273.242089419036,830.3333333333333,273.1248709597927L848,273.00765250054945L848,332.25838678095465L830.3333333333331,331.97972653466263C812.6666666666665,331.7010662883707,777.3333333333333,331.1437457957868,742,330.94074473682457C706.6666666666666,330.73774367786234,671.3333333333333,330.88906205252187,636,330.0421586844892C600.6666666666666,329.19525531645655,565.3333333333333,327.3501302057317,530,328.1815820495914C494.66666666666663,329.01303389345105,459.33333333333326,332.5210626918952,423.99999999999994,334.6981291667499C388.66666666666663,336.87519564160453,353.3333333333333,337.7212997928697,317.99999999999994,337.82599718942106C282.66666666666663,337.9306945859724,247.33333333333331,337.29398522781,211.99999999999997,337.5167003003723C176.66666666666663,337.7394153729345,141.33333333333331,338.8215548762213,105.99999999999999,339.02349031282677C70.66666666666666,339.22542574943225,35.33333333333333,338.54715711935637,17.666666666666664,338.2080228043184L0,337.8688884892805Z" class="layer"></path><path style="fill-opacity: 0.5; fill: rgb(150,150,150);" title="UK" d="M0,48.60356850286723L17.666666666666664,43.47499450538475C35.33333333333333,38.34642050790227,70.66666666666666,28.089272512937324,105.99999999999999,20.04062685235136C141.33333333333331,11.991981191765394,176.66666666666663,6.151837865558415,211.99999999999997,3.1798171125630192C247.33333333333331,0.20779635956762377,282.66666666666663,0.10389817978381188,318,4.386900837179572C353.3333333333333,8.669903494575331,388.66666666666663,17.339806989150663,423.99999999999994,25.6468660712502C459.33333333333326,33.953925153349736,494.66666666666663,41.89813982297348,530,45.759156027093425C565.3333333333333,49.620172231213374,600.6666666666666,49.397989969829524,636,48.930448160802385C671.3333333333333,48.46290635177524,706.6666666666666,47.7500049951048,742,46.04181235722328C777.3333333333333,44.333619719341755,812.6666666666665,41.63013580024915,830.3333333333333,40.27839384070285L848,38.926651881156545L848,193.98429539051733L830.3333333333331,194.67748273358777C812.6666666666665,195.3706700766582,777.3333333333333,196.7570447627991,742,198.3687985773941C706.6666666666666,199.98055239198914,671.3333333333333,201.81768533503828,636,202.2159616908762C600.6666666666666,202.61423804671418,565.3333333333333,201.5736578153409,530,200.58236261796768C494.66666666666663,199.5910674205944,459.33333333333326,198.6490572572212,423.99999999999994,197.56158964215064C388.66666666666663,196.47412202708006,353.3333333333333,195.24119696031218,317.99999999999994,194.60688525245257C282.66666666666663,193.97257354459293,247.33333333333331,193.93687519564156,211.99999999999997,197.10763451817215C176.66666666666663,200.27839384070273,141.33333333333331,206.65561083471528,105.99999999999999,213.50223447687927C70.66666666666666,220.3488581190433,35.33333333333333,227.6648884093588,17.666666666666664,231.32290355451659L0,234.98091869967436Z" class="layer"></path><path style="fill-opacity: 0.5; fill: rgb(150,150,150);" title="Northern Europe" d="M0,404.34454234849846L17.666666666666664,410.2920471271487C35.33333333333333,416.239551905799,70.66666666666666,428.1345614630995,105.99999999999999,435.53051343017177C141.33333333333331,442.92646539724404,176.66666666666663,445.8233597740881,211.99999999999997,447.16924081067225C247.33333333333331,448.51512184725635,282.66666666666663,448.3099895435806,318,444.61307918240124C353.3333333333333,440.91616882122185,388.66666666666663,433.7274804025388,423.99999999999994,423.4010669543846C459.33333333333326,413.07465350623045,494.66666666666663,399.6105150286052,530,393.77010529680905C565.3333333333333,387.92969556501293,600.6666666666666,389.7130145790459,636,390.64250367972716C671.3333333333333,391.57199278040855,706.6666666666666,391.6476519677383,742,392.6131058229601C777.3333333333333,393.578559678182,812.6666666666665,395.43380820129596,830.3333333333333,396.361432462853L848,397.28905672441005L848,410.99722272173267L830.3333333333331,410.0424250900784C812.6666666666665,409.08762745842404,777.3333333333333,407.1780321951154,742,406.2093814728232C706.6666666666666,405.2407307505311,671.3333333333333,405.2130245692554,636,404.15352954104975C600.6666666666666,403.094034512844,565.3333333333333,401.00275063770835,530,406.7190153649424C494.66666666666663,412.4352800921763,459.33333333333326,425.9590934217799,423.99999999999994,437.1854249502154C388.66666666666663,448.4117564786509,353.3333333333333,457.34060620591816,317.99999999999994,462.0370703377357C282.66666666666663,466.73353446955315,247.33333333333331,467.19761300592086,211.99999999999997,465.03706367759594C176.66666666666663,462.876514349271,141.33333333333331,458.09133715625353,105.99999999999999,449.1140016117538C70.66666666666666,440.13666606725405,35.33333333333333,426.96717217127207,17.666666666666664,420.3824252232811L0,413.7976782752902Z" class="layer"></path><path style="fill-opacity: 0.5; fill: rgb(150,150,150);" title="Asia" d="M0,430.3964314971328L17.666666666666664,435.38903541196294C35.33333333333333,440.38163932679305,70.66666666666666,450.36684715645333,105.99999999999999,458.1031622343437C141.33333333333331,465.839477312234,176.66666666666663,471.3268996383544,211.99999999999997,474.08579591999836C247.33333333333331,476.8446922016424,282.66666666666663,476.87506243880995,318,472.4423398402898C353.3333333333333,468.00961724176966,388.66666666666663,459.11380180756186,423.99999999999994,450.5872245199704C459.33333333333326,442.06064723237887,494.66666666666663,433.9033080914037,530,428.8216214776186C565.3333333333333,423.7399348638334,600.6666666666666,421.73390077723826,636,420.77031176114076C671.3333333333333,419.80672274504315,706.6666666666666,419.8855787994432,742,421.03431970002725C777.3333333333333,422.1830606006114,812.6666666666665,424.40168634737955,830.3333333333333,425.51099922076367L848,426.6203120941477L848,436.93340526284237L830.3333333333331,435.5864586039014C812.6666666666665,434.23951194496055,777.3333333333333,431.54561862707874,742,429.5449126522674C706.6666666666666,427.5442066774561,671.3333333333333,426.2366880457152,636,426.4543414120828C600.6666666666666,426.6719947784504,565.3333333333333,428.41482014292654,530,433.2583401599765C494.66666666666663,438.1018601770264,459.33333333333326,446.0460748466502,423.99999999999994,454.35313392874974C388.66666666666663,462.6601930108493,353.3333333333333,471.33009650542465,317.99999999999994,475.6130991628204C282.66666666666663,479.8961018202162,247.33333333333331,479.7922036404324,211.99999999999997,476.820182887437C176.66666666666663,473.84816213444157,141.33333333333331,468.00801880823457,105.99999999999999,459.95937314764865C70.66666666666666,451.9107274870627,35.33333333333333,441.6535794920977,17.666666666666664,436.52500549461524L0,431.3964314971328Z" class="layer"></path><path style="fill-opacity: 0.5; fill: rgb(150,150,150);" title="Americas" d="M0,372.8554017063278L17.666666666666664,374.38963149446874C35.33333333333333,375.9238612826097,70.66666666666666,378.9923208588916,105.99999999999999,373.3855488288144C141.33333333333331,367.7787767987372,176.66666666666663,353.49677316230094,211.99999999999997,346.674126023164C247.33333333333331,339.85147888402696,282.66666666666663,340.4881882421893,318,340.38349084563794C353.3333333333333,340.27879344908655,388.66666666666663,339.4326892978214,423.99999999999994,337.2556228229668C459.33333333333326,335.0785563481121,494.66666666666663,331.57052754966793,530,330.73907570580826C565.3333333333333,329.9076238619486,600.6666666666666,331.75274897267343,636,332.59965234070614C671.3333333333333,333.4465557087388,706.6666666666666,333.2952373340793,742,333.4982383930415C777.3333333333333,333.70123945200373,812.6666666666665,334.25855994458766,830.3333333333333,334.5372201908796L848,334.8158804371716L848,370.23077384163514L830.3333333333331,369.22269509214294C812.6666666666665,368.2146163426508,777.3333333333333,366.19845884366646,742,365.15468174522294C706.6666666666666,364.11090464677943,671.3333333333333,364.03950794887675,636,362.93792083757916C600.6666666666666,361.83633372628157,565.3333333333333,359.70455620158907,530,360.96119136579483C494.66666666666663,362.2178265300006,459.33333333333326,366.86287438310455,423.99999999999994,370.251553477592C388.66666666666663,373.64023257207936,353.3333333333333,375.7725429079502,317.99999999999994,376.3253345055179C282.66666666666663,376.8781261030856,247.33333333333331,375.85139896235023,211.99999999999997,382.02934457564913C176.66666666666663,388.20729018894815,141.33333333333331,401.58990855628144,105.99999999999999,406.08363803472594C70.66666666666666,410.5773675131704,35.33333333333333,406.18220810272595,17.666666666666664,403.9846283975037L0,401.7870486922816Z" class="layer"></path><path style="fill-opacity: 1; fill: rgb(253,141,60);" title="Ireland (domestic)" d="M0,340.4263821454974L17.666666666666664,340.76551646053537C35.33333333333333,341.1046507755733,70.66666666666666,341.7829194056491,105.99999999999999,347.94221662770485C141.33333333333331,354.1015138497605,176.66666666666663,365.7418396637961,211.99999999999997,378.1504791970535C247.33333333333331,390.55911873031096,282.66666666666663,403.73607198279024,318,408.0350589755373C353.3333333333333,412.3340459682844,388.66666666666663,407.75506670129937,423.99999999999994,405.18105589855276C459.33333333333326,402.6070450958061,494.66666666666663,402.0380027572978,530,406.0897653632773C565.3333333333333,410.1415279692568,600.6666666666666,418.814095519724,636,423.80413861082803C671.3333333333333,428.7941817019321,706.6666666666666,430.10170033367297,742,432.1024063084843C777.3333333333333,434.1031122832957,812.6666666666665,436.7970056011775,830.3333333333333,438.1439522601184L848,439.4908989190593L848,441.0733481188435L830.3333333333331,439.72160615929715C812.6666666666665,438.36986419975085,777.3333333333333,435.66638028065825,742,433.9581876427767C706.6666666666666,432.24999500489514,671.3333333333333,431.5370936482247,636,428.19556834302387C600.6666666666666,424.8540430378229,565.3333333333333,418.8838937840916,530,417.7434114567724C494.66666666666663,416.6029291294531,459.33333333333326,420.292113728546,423.99999999999994,425.731050237434C388.66666666666663,431.1699867463219,353.3333333333333,438.3586751650049,317.99999999999994,436.37741679820437C282.66666666666663,434.3961584314038,247.33333333333331,423.2449532791197,211.99999999999997,412.23760714499787C176.66666666666663,401.230261010876,141.33333333333331,390.36677389491626,105.99999999999999,383.40080054879553C70.66666666666666,376.4348272026747,35.33333333333333,373.3663676263928,17.666666666666664,371.83213783825187L0,370.2979080501109Z" class="layer"></path>

<defs><path d="M0,420.91390437371376L17.666666666666664,422.0117618067627C35.33333333333333,423.1096192398116,70.66666666666666,425.3053341059095,105.99999999999999,426.8875169001045C141.33333333333331,428.46969969429955,176.66666666666663,429.43835041659173,211.99999999999997,424.42299879451474C247.33333333333331,419.4076471724377,282.66666666666663,408.40829320599147,318,401.23079382205435C353.3333333333333,394.0532944381173,388.66666666666663,390.69764963668933,423.99999999999994,386.4394226990882C459.33333333333326,382.181195761487,494.66666666666663,377.02038668771263,530,375.4187562855068C565.3333333333333,373.817125883301,600.6666666666666,375.7746741526637,636,376.7902122586532C671.3333333333333,377.8057503646427,706.6666666666666,377.8792783072589,742,378.8838937840916C777.3333333333333,379.88850926092425,812.6666666666665,381.82421227197347,830.3333333333333,382.792063777498L848,383.7599152830226" id="path-Eastern_Europe"></path><path d="M0,428.4009670522887L17.666666666666664,433.13899045601966C35.33333333333333,437.8770138597507,70.66666666666666,447.3530606672128,105.99999999999999,454.65923395072826C141.33333333333331,461.9654072342438,176.66666666666663,467.10170699381274,211.99999999999997,469.5614297987972C247.33333333333331,472.0211526037816,282.66666666666663,471.80429845418155,318,467.2397050890127C353.3333333333333,462.6751117238439,388.66666666666663,453.76277914310634,423.99999999999994,445.0531812157418C459.33333333333326,436.3435832883773,494.66666666666663,427.83672001438583,530,422.43774434387626C565.3333333333333,417.03876867336675,600.6666666666666,414.7476806063391,636,413.6287771317442C671.3333333333333,412.5098736571493,706.6666666666666,412.56315477498714,742,413.62185058642524C777.3333333333333,414.6805463978634,812.6666666666665,416.7446569029018,830.3333333333333,417.776712155421L848,418.8087674079402" id="path-Africa"></path><path d="M0,268.8325441067754L17.666666666666664,266.04247837119624C35.33333333333333,263.25241263561713,70.66666666666666,257.67228116445887,105.99999999999999,252.0942809380141C141.33333333333331,246.51628071156932,176.66666666666663,240.94041172983808,211.99999999999997,238.40449692634547C247.33333333333331,235.8685821228529,282.66666666666663,236.37262149759897,318,236.81751883154504C353.3333333333333,237.26241616549112,388.66666666666663,237.64817145863717,423.99999999999994,237.57064743218308C459.33333333333326,237.493123405729,494.66666666666663,236.95232005967478,530,237.3814994638587C565.3333333333333,237.8106788680426,600.6666666666666,239.20984102246462,636,239.1291201289403C671.3333333333333,239.04839923541596,706.6666666666666,237.48779529394523,742,236.30229042205303C777.3333333333333,235.11678555016084,812.6666666666665,234.30637974784713,830.3333333333333,233.90117684669025L848,233.49597394553342" id="path-Western_Europe"></path><path d="M0,320.27652900157847L17.666666666666664,319.4850379960972C35.33333333333333,318.69354699061586,70.66666666666666,317.1105649796533,105.99999999999999,314.8549088559878C141.33333333333331,312.5992527323223,176.66666666666663,309.67092249595396,211.99999999999997,308.60902981744556C247.33333333333331,307.54713713893716,282.66666666666663,308.3516820182887,318,308.4270748000293C353.3333333333333,308.50246758176985,388.66666666666663,307.8487082658994,423.99999999999994,306.13891719448276C459.33333333333326,304.42912612306606,494.66666666666663,301.6633032961031,530,301.18110917967056C565.3333333333333,300.698915063238,600.6666666666666,302.5003496573358,636,303.0422186257467C671.3333333333333,303.5840875941577,706.6666666666666,302.8663909368819,742,302.58826350176827C777.3333333333333,302.31013606665465,812.6666666666665,302.47157785370337,830.3333333333333,302.5522987472277L848,302.6330196407521" id="path-Southern_Europe"></path><path d="M0,141.7922436012708L17.666666666666664,137.39894902995067C35.33333333333333,133.00565445863054,70.66666666666666,124.21906531599032,105.99999999999999,116.77143066461534C141.33333333333331,109.32379601324034,176.66666666666663,103.21511585313058,211.99999999999997,100.14372581536759C247.33333333333331,97.0723357776046,282.66666666666663,97.03823586218837,318,99.49689304481606C353.3333333333333,101.95555022744375,388.66666666666663,106.90696450811535,423.99999999999994,111.6042278567004C459.33333333333326,116.30149120528546,494.66666666666663,120.74460362178395,530,123.17075932253054C565.3333333333333,125.59691502327715,600.6666666666666,126.00611400827187,636,125.57320492583932C671.3333333333333,125.14029584340678,706.6666666666666,123.86527869354697,742,122.2053054673087C777.3333333333333,120.54533224107043,812.6666666666665,118.50040293845368,830.3333333333333,117.47793828714529L848,116.45547363583694" id="path-UK"></path><path d="M0,409.07111031189436L17.666666666666664,415.33723617521497C35.33333333333333,421.6033620385356,70.66666666666666,434.1356137651768,105.99999999999999,442.3222575209628C141.33333333333331,450.50890127674876,176.66666666666663,454.3499370616795,211.99999999999997,456.10315224413404C247.33333333333331,457.8563674265886,282.66666666666663,457.52176200656686,318,453.32507476006845C353.3333333333333,449.12838751357003,388.66666666666663,441.0696184405948,423.99999999999994,430.2932459523C459.33333333333326,419.51687346400524,494.66666666666663,406.0228975603908,530,400.2445603308757C565.3333333333333,394.46622310136064,600.6666666666666,396.40352454594495,636,397.3980166103885C671.3333333333333,398.392508674832,706.6666666666666,398.4441913591347,742,399.41124364789175C777.3333333333333,400.3782959366487,812.6666666666665,402.26071782986,830.3333333333333,403.2019287764657L848,404.1431397230714" id="path-Northern_Europe"></path><path d="M0,355.36214509780416L17.666666666666664,356.29882714939356C35.33333333333333,357.235509200983,70.66666666666666,359.1088733041619,105.99999999999999,365.67150858825016C141.33333333333331,372.23414387233845,176.66666666666663,383.48605033733605,211.99999999999997,395.19404317102567C247.33333333333331,406.90203600471534,282.66666666666663,419.066115207097,318,422.20623788687084C353.3333333333333,425.34636056664465,388.66666666666663,419.46252672381064,423.99999999999994,415.45605306799337C459.33333333333326,411.44957941217604,494.66666666666663,409.3204659433755,530,411.9165884100248C565.3333333333333,414.5127108766742,600.6666666666666,421.8340692787734,636,425.9998534769259C671.3333333333333,430.1656376750784,706.6666666666666,431.1758476692841,742,433.03029697563056C777.3333333333333,434.88474628197696,812.6666666666665,437.58343490046417,830.3333333333333,438.93277920970775L848,440.2821235189514" id="path-Ireland_(domestic)"></path><path d="M0,431.36286439289495L17.666666666666664,436.34571453309087C35.33333333333333,441.3285646732868,70.66666666666666,451.2942649536787,105.99999999999999,459.1090065069565C141.33333333333331,466.9237480602343,176.66666666666663,472.587530886398,211.99999999999997,475.45298940371765C247.33333333333331,478.3184479210374,282.66666666666663,478.38558212951307,318,474.0277195015551C353.3333333333333,469.66985687359715,388.66666666666663,460.8869974092056,423.99999999999994,452.47017922436004C459.33333333333326,444.0533610395146,494.66666666666663,436.0025841342151,530,431.0399808187975C565.3333333333333,426.07737750338,600.6666666666666,424.2029477778443,636,423.61232658661174C671.3333333333333,423.0217053953792,706.6666666666666,423.71489273844963,742,425.2896161761473C777.3333333333333,426.86433961384506,812.6666666666665,429.32059914617,830.3333333333333,430.54872891233254L848,431.77685867849505" id="path-Asia"></path><path d="M0,387.3212251993047L17.666666666666664,389.18712994598627C35.33333333333333,391.0530346926679,70.66666666666666,394.784844186031,105.99999999999999,389.73459343177024C141.33333333333331,384.68434267750933,176.66666666666663,370.8520316756245,211.99999999999997,364.3517352994065C247.33333333333331,357.85143892318854,282.66666666666663,358.68315717263744,318,358.3544126755779C353.3333333333333,358.02566817851834,388.66666666666663,356.53646093495036,423.99999999999994,353.7535881502793C459.33333333333326,350.9707153656083,494.66666666666663,346.89417703983423,530,345.85013353580155C565.3333333333333,344.8060900317688,600.6666666666666,346.7945413494775,636,347.7687865891426C671.3333333333333,348.7430318288078,706.6666666666666,348.7030709904294,742,349.3264600691323C777.3333333333333,349.9498491478351,812.6666666666665,351.2365881436192,830.3333333333333,351.87995764151134L848,352.52332713940336" id="path-Americas"></path></defs>
<text class="label" dy="0.5ex"><textPath style="font-size: 15px; font-family: Arial,Helvetica; font-weight: normal;" text-anchor="middle" startOffset="38%" xlink:href="#path-Eastern_Europe">Eastern Europe</textPath></text><text class="label" dy="0.5ex"><textPath style="font-size: 11px; font-family: Arial,Helvetica; font-weight: normal;" text-anchor="end" startOffset="95%" xlink:href="#path-Africa">Africa</textPath></text><text class="label" dy="0.5ex"><textPath style="font-size: 17px; font-family: Arial,Helvetica; font-weight: normal;" text-anchor="middle" startOffset="38%" xlink:href="#path-Western_Europe">Western Europe</textPath></text><text class="label" dy="0.5ex"><textPath style="font-size: 17px; font-family: Arial,Helvetica; font-weight: normal;" text-anchor="middle" startOffset="25%" xlink:href="#path-Southern_Europe">Southern Europe</textPath></text><text class="label" dy="0.5ex"><textPath style="font-size: 20px; font-family: Arial,Helvetica; font-weight: normal;" text-anchor="middle" startOffset="13%" xlink:href="#path-UK">UK</textPath></text><text class="label" dy="0.5ex"><textPath style="font-size: 11px; font-family: Arial,Helvetica; font-weight: normal;" text-anchor="middle" startOffset="25%" xlink:href="#path-Northern_Europe">Northern Europe</textPath></text><text class="label" dy="0.5ex"><textPath style="font-size: 15px; font-family: Arial,Helvetica; font-weight: normal;" text-anchor="middle" startOffset="13%" xlink:href="#path-Ireland_(domestic)">Ireland (domestic)</textPath></text><text class="label" dy="0.5ex"><textPath style="font-size: 11px; font-family: Arial,Helvetica; font-weight: normal;" text-anchor="end" startOffset="95%" xlink:href="#path-Asia">Asia</textPath></text><text class="label" dy="0.5ex"><textPath style="font-size: 15px; font-family: Arial,Helvetica; font-weight: normal;" text-anchor="middle" startOffset="38%" xlink:href="#path-Americas">Americas</textPath></text></svg>