<svg version="1.1" id="Layer_1" xmlns="http://www.w3.org/2000/svg" xmlns:xlink="http://www.w3.org/1999/xlink" x="0px" y="0px" width="848px" height="500px" viewBox="-13 0 874 500" preserveAspectRatio="xMinYMin meet" enable-background="new 0 0 847 500" xml:space="preserve">

<g transform="translate(0,480)" style="stroke-width: 1px; font-size: 10px; font-family: Arial,Helvetica;" class="x axis">
<g transform="translate(0,0)" style="opacity: 1;" class="tick"><line style="shape-rendering: crispedges; fill: none; stroke: rgb(204, 204, 204);" x2="0" y2="-480"></line><text style="text-anchor: middle;" dy=".71em" x="0" y="3">2005</text></g>
<g transform="translate(106,0)" style="opacity: 1;" class="tick"><line style="shape-rendering: crispedges; fill: none; stroke: rgb(204, 204, 204);" x2="0" y2="-480"></line><text style="text-anchor: middle;" dy=".71em" x="0" y="3">2006</text></g>
<g transform="translate(212,0)" style="opacity: 1;" class="tick"><line style="shape-rendering: crispedges; fill: none; stroke: rgb(204, 204, 204);" x2="0" y2="-480"></line><text style="text-anchor: middle;" dy=".71em" x="0" y="3">2007</text></g>
<g transform="translate(318,0)" style="opacity: 1;" class="tick"><line style="shape-rendering: crispedges; fill: none; stroke: rgb(204, 204, 204);" x2="0" y2="-480"></line><text style="text-anchor: middle;" dy=".71em" x="0" y="3">2008</text></g>
<g transform="translate(424,0)" style="opacity: 1;" class="tick"><line style="shape-rendering: crispedges; fill: none; stroke: rgb(204, 204, 204);" x2="0" y2="-480"></line><text style="text-anchor: middle;" dy=".71em" x="0" y="3">2009</text></g>
<g transform="translate(530,0)" style="opacity: 1;" class="tick"><line style="shape-rendering: crispedges; fill: none; stroke: rgb(204, 204, 204);" x2="0" y2="-480"></line><text style="text-anchor: middle;" dy=".71em" x="0" y="3">2010</text></g>
<g transform="translate(636,0)" style="opacity: 1;" class="tick"><line style="shape-rendering: crispedges; fill: none; stroke: rgb(204, 204, 204);" x2="0" y2="-480"></line><text style="text-anchor: middle;" dy=".71em" x="0" y="3">2011</text></g>
<g transform="translate(742,0)" style="opacity: 1;" class="tick"><line style="shape-rendering: crispedges; fill: none; stroke: rgb(204, 204, 204);" x2="0" y2="-480"></line><text style="text-anchor: middle;" dy=".71em" x="0" y="3">2012</text></g>
<g transform="translate(848,0)" style="opacity: 1;" class="tick"><line style="shape-rendering: crispedges; fill: none; stroke: rgb(204, 204, 204);" x2="0" y2="-480"></line><text style="text-anchor: middle;" dy=".71em" x="0" y="3">2013</text></g>
<path style="shape-rendering: crispedges; fill: none; stroke: rgb(204, 204, 204);" d="M0,-480V0H848V-480" class="domain"></path></g>

<path style="fill-opacity: 0.5; fill: rgb(150, 150, 150);" title="Eastern Europe" d="M0,404.882243436438L17.666666666666664,407.07930598156975C35.33333333333333,409.27636852670145,70.66666666666666,413.6704936169649,105.99999999999999,415.40355224019027C141.33333333333331,417.1366108634156,176.66666666666663,416.2086030196029,211.99999999999997,410.00457114086396C247.33333333333331,403.8005392621251,282.66666666666663,392.32048334846,318,385.4844415589578C353.3333333333333,378.6483997694555,388.66666666666663,376.45637210411604,423.99999999999994,372.98972487031875C459.33333333333326,369.5230776365214,494.66666666666663,364.7818108342663,530,363.4014587901714C565.3333333333333,362.0211067460764,600.6666666666666,364.0016694601416,636,365.0062604755311C671.3333333333333,366.01085149092063,706.6666666666666,366.0394708076344,742,367.0565165256679C777.3333333333333,368.0735622437014,812.6666666666665,370.0790343630546,830.3333333333333,371.08177042273115L848,372.08450648240773L848,393.9115053628094L830.3333333333331,392.9887973924622C812.6666666666665,392.066089422115,777.3333333333333,390.2206734814206,742,389.2815359033303C706.6666666666666,388.34239832523997,671.3333333333333,388.30953910975376,636,387.47613400730063C600.6666666666666,386.6427289048474,565.3333333333333,385.00877791542723,530,387.07546357330716C494.66666666666663,389.1421492311871,459.33333333333326,394.909471536367,423.99999999999994,400.1059974693104C388.66666666666663,405.3025234022537,353.3333333333333,409.92825296296047,317.99999999999994,417.5863051269651C282.66666666666663,425.2443572909697,247.33333333333331,435.9347320582721,211.99999999999997,439.82589915665767C176.66666666666663,443.71706625504316,141.33333333333331,440.80902568451177,105.99999999999999,435.3634056986889C70.66666666666666,429.9177857128661,35.33333333333333,421.9345863117518,17.666666666666664,417.94298661119467L0,413.95138691063755Z" class="layer"></path>
<path style="fill-opacity: 0.5; fill: rgb(150, 150, 150);" title="Africa" d="M0,427.7253141831239L17.666666666666664,432.3833586181463C35.33333333333333,437.0414030531688,70.66666666666666,446.3574919232136,105.99999999999999,453.3954445379283C141.33333333333331,460.43339715264295,176.66666666666663,465.19321351202734,211.99999999999997,467.3423122022961C247.33333333333331,469.4914108925649,282.66666666666663,469.02979191371804,318,464.35821844753457C353.3333333333333,459.68664498135104,388.66666666666663,450.8051170278309,423.99999999999994,441.95962821387633C459.33333333333326,433.1141393999218,494.66666666666663,424.30468972553274,530,418.5657217433933C565.3333333333333,412.82675376125394,600.6666666666666,410.15826747136407,636,408.83780399742955C671.3333333333333,407.517340523495,706.6666666666666,407.54489986551573,742,408.5084168615474C777.3333333333333,409.47193385757913,812.6666666666665,411.3714085076218,830.3333333333333,412.3211458326432L848,413.27088315766457L848,423.72329360636513L830.3333333333331,422.6198599508436C812.6666666666665,421.51642629532216,777.3333333333333,419.3095589842792,742,418.1669062651129C706.6666666666666,417.0242535459465,671.3333333333333,416.9458154186568,636,417.95729626955153C600.6666666666666,418.96877712044625,565.3333333333333,421.07017694952526,530,426.17793000192114C494.66666666666663,431.285683054317,459.33333333333326,439.39978933002965,423.99999999999994,447.8811768369029C388.66666666666663,456.3625643437762,353.3333333333333,465.2112330818101,317.99999999999994,469.6204628114503C282.66666666666663,474.0296925410905,247.33333333333331,473.9994832623371,211.99999999999997,471.25520878189036C176.66666666666663,468.5109343014435,141.33333333333331,463.0525946193035,105.99999999999999,455.51193465256017C70.66666666666666,447.97127468581687,35.33333333333333,438.3482944344704,17.666666666666664,433.5368043087972L0,428.7253141831239Z" class="layer"></path>
<path style="fill-opacity: 0.5; fill: rgb(150, 150, 150);" title="Western Europe" d="M0,237.68819519433978L17.666666666666664,234.06069680086392C35.33333333333333,230.43319840738803,70.66666666666666,223.1782016204363,105.99999999999999,216.39224363518318C141.33333333333331,209.6062856499301,176.66666666666663,203.2893664663756,211.99999999999997,200.12958190623198C247.33333333333331,196.96979734608834,282.66666666666663,196.96714740935556,318,197.543508648731C353.3333333333333,198.11986988810642,388.66666666666663,199.27524230359003,423.99999999999994,200.26101876817694C459.33333333333326,201.24679523276384,494.66666666666663,202.06297574645404,530,202.9186403174624C565.3333333333333,203.77430488847077,600.6666666666666,204.6694535167973,636,204.18213015164264C671.3333333333333,203.69480678648796,706.6666666666666,201.82501142785213,742,200.20060021066993C777.3333333333333,198.57618899348776,812.6666666666665,197.19716191775922,830.3333333333333,196.50764837989496L848,195.8181348420307L848,269.3347996316588L830.3333333333331,269.4513968479003C812.6666666666665,269.5679940641417,777.3333333333333,269.8011884966246,742,270.57761995932344C706.6666666666666,271.3540514220223,671.3333333333333,272.673719914937,636,272.52929836300154C600.6666666666666,272.38487681106614,565.3333333333333,270.77636521428053,530,271.0389739444971C494.66666666666663,271.30158267471364,459.33333333333326,273.4353117319324,423.99999999999994,274.76716993381785C388.66666666666663,276.0990281357033,353.3333333333333,276.62901548225534,317.99999999999994,276.42947524627846C282.66666666666663,276.2299350103016,247.33333333333331,275.30086719179576,211.99999999999997,277.1976919051057C176.66666666666663,279.0945166184157,141.33333333333331,283.8172338635415,105.99999999999999,288.07939210451354C70.66666666666666,292.34155034548553,35.33333333333333,296.14314958230375,17.666666666666664,298.04394920071286L0,299.94474881912197Z" class="layer"></path>
<path style="fill-opacity: 0.5; fill: rgb(150, 150, 150);" title="Southern Europe" d="M0,302.8066804905033L17.666666666666664,300.9058808720942C35.33333333333333,299.00508125368503,70.66666666666666,295.2034820168668,105.99999999999999,290.94132377589483C141.33333333333331,286.67916553492284,176.66666666666663,281.9564482897971,211.99999999999997,280.0596235764871C247.33333333333331,278.1627988631771,282.66666666666663,279.091866681683,318,279.2914069176598C353.3333333333333,279.4909471536367,388.66666666666663,278.9609598070846,423.99999999999994,277.62910160519914C459.33333333333326,276.29724340331376,494.66666666666663,274.163514346095,530,273.90090561587846C565.3333333333333,273.6382968856619,600.6666666666666,275.2468084824475,636,275.39123003438294C671.3333333333333,275.5356515863184,706.6666666666666,274.2159830934037,742,273.43955163070484C777.3333333333333,272.663120168006,812.6666666666665,272.42992573552306,830.3333333333333,272.3133285192816L848,272.1967313030401L848,331.13344418902L830.3333333333331,330.85626080677326C812.6666666666665,330.5790774245265,777.3333333333333,330.02471066003295,742,329.84398497485876C706.6666666666666,329.66325928968445,671.3333333333333,329.8561746838294,636,329.10491762009184C600.6666666666666,328.3536605563542,565.3333333333333,326.65823103473406,530,327.61565317628043C494.66666666666663,328.5730753178268,459.33333333333326,332.1833491225397,423.99999999999994,334.44480513027753C388.66666666666663,336.7062611380153,353.3333333333333,337.61889934877803,317.99999999999994,337.7776305590704C282.66666666666663,337.93636176936275,247.33333333333331,337.34118597918473,211.99999999999997,337.5685505508556C176.66666666666663,337.7959151225264,141.33333333333331,338.84582005604614,105.99999999999999,339.02230584244796C70.66666666666666,339.1987916288499,35.33333333333333,338.50185826813384,17.666666666666664,338.1533915877759L0,337.80492490741784Z" class="layer"></path>
<path style="fill-opacity: 0.5; fill: rgb(150, 150, 150);" title="UK" d="M0,48.345975739829214L17.666666666666664,43.24458253559195C35.33333333333333,38.14318933135471,70.66666666666666,27.94040292288021,105.99999999999999,19.93441406586417C141.33333333333331,11.928425208848125,176.66666666666663,6.119233903290535,211.99999999999997,3.1629644842229157C247.33333333333331,0.2066950651552967,282.66666666666663,0.10334753257764835,318,4.363650817836732C353.3333333333333,8.623954103095816,388.66666666666663,17.24790820619163,423.99999999999994,25.510940926285443C459.33333333333326,33.77397364637926,494.66666666666663,41.67608498347107,530,45.51663829026086C565.3333333333333,49.35719159705066,600.6666666666666,49.136186873538435,636,48.671122976938975C671.3333333333333,48.20605908033951,706.6666666666666,47.4969360106528,742,45.79779657760676C777.3333333333333,44.09865714456072,812.6666666666665,41.409501348155345,830.3333333333333,40.06492344995266L848,38.72034555174997L848,192.9562031706493L830.3333333333331,193.6457167085136C812.6666666666665,194.33523024637785,777.3333333333333,195.7142573221064,742,197.33866853928856C706.6666666666666,198.96307975647076,671.3333333333333,200.8328751151066,636,201.32019848026124C600.6666666666666,201.80752184541592,565.3333333333333,200.91237321708945,530,200.0567086460811C494.66666666666663,199.20104407507276,459.33333333333326,198.38486356138253,423.99999999999994,197.39908709679563C388.66666666666663,196.41331063220872,353.3333333333333,195.2579382167251,317.99999999999994,194.68157697734966C282.66666666666663,194.10521573797425,247.33333333333331,194.107865674707,211.99999999999997,197.26765023485063C176.66666666666663,200.42743479499424,141.33333333333331,206.74435397854873,105.99999999999999,213.53031196380186C70.66666666666666,220.31626994905494,35.33333333333333,227.57126673600666,17.666666666666664,231.19876512948252L0,234.82626352295839Z" class="layer"></path>
<path style="fill-opacity: 0.5; fill: rgb(150, 150, 150);" title="Asia" d="M0,430.6540242601708L17.666666666666664,435.62105131823307C35.33333333333333,440.5880783762954,70.66666666666666,450.52213249242004,105.99999999999999,458.2183293915524C141.33333333333331,465.91452629068476,176.66666666666663,471.37286597282485,211.99999999999997,474.11714045327165C247.33333333333331,476.86141493371844,282.66666666666663,476.8916242124719,318,472.48239448283175C353.3333333333333,468.0731647531915,388.66666666666663,459.2244960151576,423.99999999999994,450.7431085082843C459.33333333333326,442.26172100141105,494.66666666666663,434.14761472569836,530,429.0398616733024C565.3333333333333,423.9321086209066,600.6666666666666,421.83070879182753,636,420.8192279409328C671.3333333333333,419.80774709003816,706.6666666666666,419.88618521732786,742,421.02883793649414C777.3333333333333,422.17149065566053,812.6666666666665,424.3783579667035,830.3333333333333,425.48179162222493L848,426.5852252777465L848,436.84366035760894L830.3333333333331,435.50385234552516C812.6666666666665,434.1640443334415,777.3333333333333,431.48442830927405,742,429.4943258229709C706.6666666666666,427.5042233366678,671.3333333333333,426.2036343882289,636,426.4731329539507C600.6666666666666,426.74263151967244,565.3333333333333,428.58221759955484,530,433.4530663080419C494.66666666666663,438.323915016529,459.33333333333326,446.2260263536208,423.99999999999994,454.4890590737146C388.66666666666663,462.7520917938084,353.3333333333333,471.3760458969042,317.99999999999994,475.63634918216326C282.66666666666663,479.8966524674223,247.33333333333331,479.7933049348446,211.99999999999997,476.837035515777C176.66666666666663,473.8807660967094,141.33333333333331,468.0715747911518,105.99999999999999,460.0655859341358C70.66666666666666,452.05959707711975,35.33333333333333,441.85681066864527,17.666666666666664,436.75541746440797L0,431.6540242601708Z" class="layer"></path>
<path style="fill-opacity: 0.5; fill: rgb(150, 150, 150);" title="Americas" d="M0,373.24199884727756L17.666666666666664,374.77922714595195C35.33333333333333,376.3164554446263,70.66666666666666,379.390912041975,105.99999999999999,373.78523587749345C141.33333333333331,368.1795597130118,176.66666666666663,353.89375078669997,211.99999999999997,347.0484342186331C247.33333333333331,340.2031176505661,282.66666666666663,340.7982934407441,318,340.63956223045176C353.3333333333333,340.48083102015937,388.66666666666663,339.5681928093967,423.99999999999994,337.3067368016589C459.33333333333326,335.04528079392105,494.66666666666663,331.43500698920815,530,330.47758484766183C565.3333333333333,329.5201627061154,600.6666666666666,331.21559222773556,636,331.9668492914732C671.3333333333333,332.7181063552108,706.6666666666666,332.5251909610658,742,332.7059166462401C777.3333333333333,332.8866423314143,812.6666666666665,333.4410090959078,830.3333333333333,333.71819247815455L848,333.9953758604013L848,369.22257481102633L830.3333333333331,368.21983875134976C812.6666666666665,367.2171026916732,777.3333333333333,365.21163057232,742,364.1945848542865C706.6666666666666,363.17753913625313,671.3333333333333,363.1489198195393,636,362.1443288041498C600.6666666666666,361.13973778876027,565.3333333333333,359.1591750746951,530,360.53952711879003C494.66666666666663,361.91987916288497,459.33333333333326,366.66114596514007,423.99999999999994,370.12779319893735C388.66666666666663,373.59444043273464,353.3333333333333,375.7864680980741,317.99999999999994,376.39091866681684C282.66666666666663,376.99536923555945,247.33333333333331,376.01224270770535,211.99999999999997,382.21627458644423C176.66666666666663,388.4203064651831,141.33333333333331,401.81149675051506,105.99999999999999,406.3100293480493C70.66666666666666,410.8085619455835,35.33333333333333,406.41443685532005,17.666666666666664,404.2173743101883L0,402.02031176505665Z" class="layer"></path>
<path style="fill-opacity: 0.5; fill: rgb(150, 150, 150);" title="Northern Europe" d="M0,416.8133185820189L17.666666666666664,420.80491828257607C35.33333333333333,424.7965179831332,70.66666666666666,432.7797173842475,105.99999999999999,438.22533737007035C141.33333333333331,443.67095735589317,176.66666666666663,446.5789979264245,211.99999999999997,447.911916103003C247.33333333333331,449.2448342795816,282.66666666666663,449.00263006220723,318,445.27072416146063C353.3333333333333,441.53881826071404,388.66666666666663,434.3172106765951,423.99999999999994,423.89659946868767C459.33333333333326,413.47598826078024,494.66666666666663,399.85637342908433,530,393.8635415079465C565.3333333333333,387.87070958680863,600.6666666666666,389.50466057622873,636,390.33806567868186C671.3333333333333,391.1714707811351,706.6666666666666,391.20432999662125,742,392.1434675747116C777.3333333333333,393.08260515280193,812.6666666666665,394.92802109349634,830.3333333333333,395.8507290638436L848,396.7734370341908L848,410.40895148628323L830.3333333333331,409.4592141612618C812.6666666666665,408.5094768362404,777.3333333333333,406.61000218619773,742,405.646485190166C706.6666666666666,404.68296819413433,671.3333333333333,404.6554088521136,636,403.60152901349477C600.6666666666666,402.5476491748759,565.3333333333333,400.4674488396589,530,406.20641682179837C494.66666666666663,411.9453848039377,459.33333333333326,425.5035211034336,423.99999999999994,436.7233532299416C388.66666666666663,447.9431853564496,353.3333333333333,456.82471330996975,317.99999999999994,461.4962867761532C282.66666666666663,466.1678602423367,247.33333333333331,466.6294792211836,211.99999999999997,464.4803805309148C176.66666666666663,462.33128184064606,141.33333333333331,457.5714654812616,105.99999999999999,450.57722246881355C70.66666666666666,443.5829794563655,35.33333333333333,434.35430979085373,17.666666666666664,429.73997495809783L0,425.12564012534204Z" class="layer"></path>
<path style="fill-opacity: 1.0; fill: rgb(253,141,60);" title="Ireland (domestic)" d="M0,340.66685657879924L17.666666666666664,341.0153232591572C35.33333333333333,341.3637899395152,70.66666666666666,342.0607233002312,105.99999999999999,348.2647551789701C141.33333333333331,354.46878705770894,176.66666666666663,366.17991745447074,211.99999999999997,378.62296037682097C247.33333333333331,391.0660032991712,282.66666666666663,404.24095874710986,318,408.5155716907259C353.3333333333333,412.7901846343418,388.66666666666663,408.16445507363505,423.99999999999994,405.4699994037642C459.33333333333326,402.7755437338933,494.66666666666663,402.0123619548583,530,406.0500705545654C565.3333333333333,410.08777915427265,600.6666666666666,418.926378132722,636,423.99597209616616C671.3333333333333,429.06556605961026,706.6666666666666,430.36615500804913,742,432.35625749435223C777.3333333333333,434.3463599806554,812.6666666666665,437.02597600482284,830.3333333333333,438.36578401690656L848,439.7055920289903L848,441.27965444825L830.3333333333331,439.9350765500473C812.6666666666665,438.59049865184465,777.3333333333333,435.9013428554393,742,434.20220342239327C706.6666666666666,432.5030639893472,671.3333333333333,431.7939409196605,636,428.3641278064486C600.6666666666666,424.9343146932367,565.3333333333333,418.78381153649957,530,417.64195379835303C494.66666666666663,416.50009606020654,459.33333333333326,420.3668837406507,423.99999999999994,425.9110813729322C388.66666666666663,431.4552790052137,353.3333333333333,438.67688658933264,317.99999999999994,436.7077186032183C282.66666666666663,434.738550617104,247.33333333333331,423.57860706075644,211.99999999999997,412.5294308598382C176.66666666666663,401.48025465892005,141.33333333333331,390.5418458134312,105.99999999999999,383.53541309201245C70.66666666666666,376.5289803705937,35.33333333333333,373.45452377324494,17.666666666666664,371.91729547457055L0,370.3800671758962Z" class="layer"></path>

<defs><path d="M0,409.41681517353777L17.666666666666664,412.51114629638215C35.33333333333333,415.60547741922664,70.66666666666666,421.7941396649155,105.99999999999999,425.3834789694396C141.33333333333331,428.9728182739637,176.66666666666663,429.962834637323,211.99999999999997,424.9152351487608C247.33333333333331,419.86763566019863,282.66666666666663,408.78242031971484,318,401.5353733429614C353.3333333333333,394.28832636620797,388.66666666666663,390.8794477531849,423.99999999999994,386.54786116981455C459.33333333333326,382.21627458644423,494.66666666666663,376.9619800327267,530,375.23846118173924C565.3333333333333,373.5149423307518,600.6666666666666,375.3221991824945,636,376.2411972414158C671.3333333333333,377.1601953003372,706.6666666666666,377.1909345664372,742,378.1690262144991C777.3333333333333,379.147117862561,812.6666666666665,381.07256189258476,830.3333333333333,382.03528390759664L848,382.99800592260857" id="path-Eastern_Europe"></path><path d="M0,428.3564429899236L17.666666666666664,433.0693554691381C35.33333333333333,437.7822679483527,70.66666666666666,447.2080929067818,105.99999999999999,454.4755443963775C141.33333333333331,461.7429958859732,176.66666666666663,466.8520739067355,211.99999999999997,469.29876049209327C247.33333333333331,471.74544707745105,282.66666666666663,471.5297422274043,318,466.98934062949246C353.3333333333333,462.4489390315806,388.66666666666663,453.5838406858036,423.99999999999994,444.92040252538965C459.33333333333326,436.2569643649757,494.66666666666663,427.7951863899249,530,422.37182587265727C565.3333333333333,416.9484653553896,600.6666666666666,414.56352229590516,636,413.39755013349054C671.3333333333333,412.2315779710759,706.6666666666666,412.2845767057311,742,413.33766156333013C777.3333333333333,414.3907464209292,812.6666666666665,416.443917401472,830.3333333333333,417.4705028917434L848,418.49708838201485" id="path-Africa"></path><path d="M0,268.81647200673086L17.666666666666664,266.05232300078836C35.33333333333333,263.28817399484586,70.66666666666666,257.7598759829609,105.99999999999999,252.23581786984835C141.33333333333331,246.71175975673577,176.66666666666663,241.19194154239565,211.99999999999997,238.66363690566885C247.33333333333331,236.13533226894205,282.66666666666663,236.59854120982857,318,236.98649194750473C353.3333333333333,237.3744426851809,388.66666666666663,237.68713521964668,423.99999999999994,237.51409435099742C459.33333333333326,237.34105348234817,494.66666666666663,236.68227921058386,530,236.97880713097976C565.3333333333333,237.27533505137563,600.6666666666666,238.52716516393173,636,238.35571425732212C671.3333333333333,238.1842633507125,706.6666666666666,236.5895314249372,742,235.38911008499667C777.3333333333333,234.1886887450562,812.6666666666665,233.3825779909505,830.3333333333333,232.97952261389764L848,232.57646723684476" id="path-Western_Europe"></path><path d="M0,320.3058026989606L17.666666666666664,319.529636229935C35.33333333333333,318.75346976090947,70.66666666666666,317.20113682285836,105.99999999999999,314.98181480917145C141.33333333333331,312.7624927954845,176.66666666666663,309.87618170616173,211.99999999999997,308.8140870636713C247.33333333333331,307.7519924211809,282.66666666666663,308.5141142255228,318,308.53451873836514C353.3333333333333,308.55492325120736,388.66666666666663,307.83361047254994,423.99999999999994,306.03695336773836C459.33333333333326,304.24029626292673,494.66666666666663,301.36829483196095,530,300.75827939607944C565.3333333333333,300.148263960198,600.6666666666666,301.8002345194009,636,302.2480738272374C671.3333333333333,302.6959131350739,706.6666666666666,301.93962119154406,742,301.64176830278177C777.3333333333333,301.3439154140195,812.6666666666665,301.50450158002474,830.3333333333333,301.58479466302737L848,301.66508774603005" id="path-Southern_Europe"></path><path d="M0,141.58611963139379L17.666666666666664,137.22167383253725C35.33333333333333,132.85722803368068,70.66666666666666,124.12833643596758,105.99999999999999,116.73236301483301C141.33333333333331,109.33638959369844,176.66666666666663,103.2733343491424,211.99999999999997,100.21530735953678C247.33333333333331,97.15728036993116,282.66666666666663,97.10428163527595,318,99.5226138975932C353.3333333333333,101.94094615991045,388.66666666666663,106.83060941920017,423.99999999999994,111.45501401154053C459.33333333333326,116.0794186038809,494.66666666666663,120.4385645292719,530,122.78667346817097C565.3333333333333,125.13478240707005,600.6666666666666,125.47185435947719,636,124.99566072860013C671.3333333333333,124.51946709772307,706.6666666666666,123.2300078835618,742,121.56823255844768C777.3333333333333,119.90645723333355,812.6666666666665,117.87236579726658,830.3333333333333,116.85532007923311L848,115.83827436119964" id="path-UK"></path><path d="M0,355.5234618773477L17.666666666666664,356.46630936686387C35.33333333333333,357.40915685638004,70.66666666666666,359.29485183541243,105.99999999999999,365.9000841354913C141.33333333333331,372.5053164355701,176.66666666666663,383.8300860566954,211.99999999999997,395.5761956183296C247.33333333333331,407.3223051799638,282.66666666666663,419.48975468210693,318,422.6116451469721C353.3333333333333,425.7335356118372,388.66666666666663,419.8098670394244,423.99999999999994,415.69054038834815C459.33333333333326,411.571213737272,494.66666666666663,409.2562290075324,530,411.8460121764592C565.3333333333333,414.43579534538605,600.6666666666666,421.93034641297936,636,426.18004995130735C671.3333333333333,430.42975348963546,706.6666666666666,431.43460949869825,742,433.2792304583728C777.3333333333333,435.12385141804737,812.6666666666665,437.8082373283337,830.3333333333333,439.1504302834769L848,440.4926232386201" id="path-Ireland_(domestic)"></path><path d="M0,431.620635057338L17.666666666666664,436.57707672229327C35.33333333333333,441.5335183872485,70.66666666666666,451.446401717159,105.99999999999999,459.21972612903863C141.33333333333331,466.9930505409183,176.66666666666663,472.6268160347671,211.99999999999997,475.4770879845243C247.33333333333331,478.3273599342815,282.66666666666663,478.3941383399471,318,474.0593718324975C353.3333333333333,469.72460532504783,388.66666666666663,460.98829390448293,423.99999999999994,452.61608379099937C459.33333333333326,444.24387367751586,494.66666666666663,436.23576487111364,530,431.24646399067217C565.3333333333333,426.2571631102307,600.6666666666666,424.28667015574996,636,423.6461804474417C671.3333333333333,423.0056907391335,706.6666666666666,423.6952042769978,742,425.2615818797325C777.3333333333333,426.8279594824673,812.6666666666665,429.2712011500725,830.3333333333333,430.49282198387505L848,431.7144428176777" id="path-Asia"></path><path d="M0,387.6311553061671L17.666666666666664,389.49830072807003C35.33333333333333,391.36544614997314,70.66666666666666,395.09973699377923,105.99999999999999,390.0476326127713C141.33333333333331,384.9955282317634,176.66666666666663,371.1570286259415,211.99999999999997,364.6323544025386C247.33333333333331,358.1076801791357,282.66666666666663,358.89683133815174,318,358.51524044863424C353.3333333333333,358.13364955911675,388.66666666666663,356.58131662106564,423.99999999999994,353.71726500029814C459.33333333333326,350.85321337953053,494.66666666666663,346.67744307604653,530,345.5085559832259C565.3333333333333,344.3396688904052,600.6666666666666,346.1776650082479,636,347.0555890478115C671.3333333333333,347.93351308737505,706.6666666666666,347.85136504865943,742,348.4502507502633C777.3333333333333,349.0491364518672,812.6666666666665,350.3290558937905,830.3333333333333,350.9690156147521L848,351.6089753357138" id="path-Americas"></path><path d="M0,420.96947935368047L17.666666666666664,425.27244662033695C35.33333333333333,429.5754138869935,70.66666666666666,438.18134842030645,105.99999999999999,444.40127991944195C141.33333333333331,450.6212114185774,176.66666666666663,454.45513988353525,211.99999999999997,456.1961483169589C247.33333333333331,457.93715675038254,282.66666666666663,457.58524515227197,318,453.3835054688069C353.3333333333333,449.18176578534184,388.66666666666663,441.1301980165223,423.99999999999994,430.3099763493146C459.33333333333326,419.4897546821069,494.66666666666663,405.900879116511,530,400.03497916487237C565.3333333333333,394.1690792132337,600.6666666666666,396.02615487555227,636,396.9697973460883C671.3333333333333,397.9134398166243,706.6666666666666,397.9436490953778,742,398.8949763824388C777.3333333333333,399.84630366949983,812.6666666666665,401.7187489648684,830.3333333333333,402.6549716125527L848,403.591194260237" id="path-Northern_Europe"></path></defs>
<text class="label" dy="0.5ex"><textPath style="font-size: 15px; font-family: Arial,Helvetica; font-weight: normal;" text-anchor="middle" startOffset="38%" xlink:href="#path-Eastern_Europe">Eastern Europe</textPath></text><text class="label" dy="0.5ex"><textPath style="font-size: 11px; font-family: Arial,Helvetica; font-weight: normal;" text-anchor="end" startOffset="95%" xlink:href="#path-Africa">Africa</textPath></text><text class="label" dy="0.5ex"><textPath style="font-size: 17px; font-family: Arial,Helvetica; font-weight: normal;" text-anchor="middle" startOffset="38%" xlink:href="#path-Western_Europe">Western Europe</textPath></text><text class="label" dy="0.5ex"><textPath style="font-size: 17px; font-family: Arial,Helvetica; font-weight: normal;" text-anchor="middle" startOffset="25%" xlink:href="#path-Southern_Europe">Southern Europe</textPath></text><text class="label" dy="0.5ex"><textPath style="font-size: 20px; font-family: Arial,Helvetica; font-weight: normal;" text-anchor="middle" startOffset="13%" xlink:href="#path-UK">UK</textPath></text><text class="label" dy="0.5ex"><textPath style="font-size: 11px; font-family: Arial,Helvetica; font-weight: normal;" text-anchor="middle" startOffset="25%" xlink:href="#path-Northern_Europe">Northern Europe</textPath></text><text class="label" dy="0.5ex"><textPath style="font-size: 15px; font-family: Arial,Helvetica; font-weight: normal;" text-anchor="middle" startOffset="13%" xlink:href="#path-Ireland_(domestic)">Ireland (domestic)</textPath></text><text class="label" dy="0.5ex"><textPath style="font-size: 11px; font-family: Arial,Helvetica; font-weight: normal;" text-anchor="end" startOffset="95%" xlink:href="#path-Asia">Asia</textPath></text><text class="label" dy="0.5ex"><textPath style="font-size: 15px; font-family: Arial,Helvetica; font-weight: normal;" text-anchor="middle" startOffset="38%" xlink:href="#path-Americas">Americas</textPath></text></svg>