<svg version="1.1" id="Layer_1" xmlns="http://www.w3.org/2000/svg" xmlns:xlink="http://www.w3.org/1999/xlink" x="0px" y="0px"
width="847px" height="500px" viewBox="-13 0 874 500" preserveAspectRatio="xMinYMin meet" enable-background="new 0 0 847 500" xml:space="preserve"><g transform="translate(0,480)" style="stroke-width: 1px; font-size: 10px; font-family: Arial,Helvetica;" class="x axis"><g transform="translate(0,0)" style="opacity: 1;" class="tick"><line style="shape-rendering: crispedges; fill: none; stroke: rgb(204, 204, 204);" x2="0" y2="-480"></line><text style="text-anchor: middle;" dy=".71em" x="0" y="3">2005</text></g><g transform="translate(106,0)" style="opacity: 1;" class="tick"><line style="shape-rendering: crispedges; fill: none; stroke: rgb(204, 204, 204);" x2="0" y2="-480"></line><text style="text-anchor: middle;" dy=".71em" x="0" y="3">2006</text></g><g transform="translate(212,0)" style="opacity: 1;" class="tick"><line style="shape-rendering: crispedges; fill: none; stroke: rgb(204, 204, 204);" x2="0" y2="-480"></line><text style="text-anchor: middle;" dy=".71em" x="0" y="3">2007</text></g><g transform="translate(318,0)" style="opacity: 1;" class="tick"><line style="shape-rendering: crispedges; fill: none; stroke: rgb(204, 204, 204);" x2="0" y2="-480"></line><text style="text-anchor: middle;" dy=".71em" x="0" y="3">2008</text></g><g transform="translate(424,0)" style="opacity: 1;" class="tick"><line style="shape-rendering: crispedges; fill: none; stroke: rgb(204, 204, 204);" x2="0" y2="-480"></line><text style="text-anchor: middle;" dy=".71em" x="0" y="3">2009</text></g><g transform="translate(530,0)" style="opacity: 1;" class="tick"><line style="shape-rendering: crispedges; fill: none; stroke: rgb(204, 204, 204);" x2="0" y2="-480"></line><text style="text-anchor: middle;" dy=".71em" x="0" y="3">2010</text></g><g transform="translate(636,0)" style="opacity: 1;" class="tick"><line style="shape-rendering: crispedges; fill: none; stroke: rgb(204, 204, 204);" x2="0" y2="-480"></line><text style="text-anchor: middle;" dy=".71em" x="0" y="3">2011</text></g><g transform="translate(742,0)" style="opacity: 1;" class="tick"><line style="shape-rendering: crispedges; fill: none; stroke: rgb(204, 204, 204);" x2="0" y2="-480"></line><text style="text-anchor: middle;" dy=".71em" x="0" y="3">2012</text></g><g transform="translate(848,0)" style="opacity: 1;" class="tick"><line style="shape-rendering: crispedges; fill: none; stroke: rgb(204, 204, 204);" x2="0" y2="-480"></line><text style="text-anchor: middle;" dy=".71em" x="0" y="3">2013</text></g><path style="shape-rendering: crispedges; fill: none; stroke: rgb(204, 204, 204);" d="M0,-480V0H848V-480" class="domain"></path></g><path style="fill-opacity: 0.9; fill: rgb(191, 105, 105);" title="Eastern Europe" d="M0,416.0564966511424L17.666666666666664,416.19826826634505C35.33333333333333,416.3400398815478,70.66666666666666,416.62358311195317,105.99999999999999,416.28810112158567C141.33333333333331,415.9526191312182,176.66666666666663,414.99811192007786,211.99999999999997,408.799909902151C247.33333333333331,402.6017078842242,282.66666666666663,391.15981105951096,318,384.3783579667035C353.3333333333333,377.5969048738961,388.66666666666663,375.47589551299455,423.99999999999994,372.1051759889232C459.33333333333326,368.73445646485186,494.66666666666663,364.11402677761066,530,362.8640516207675C565.3333333333333,361.6140764639244,600.6666666666666,363.7345558374794,636,364.83030467647586C671.3333333333333,365.9260535154723,706.6666666666666,365.9970718199103,742,367.03531703180585C777.3333333333333,368.0735622437014,812.6666666666665,370.0790343630546,830.3333333333333,371.08177042273115L848,372.08450648240773L848,393.9115053628094L830.3333333333331,392.9887973924622C812.6666666666665,392.066089422115,777.3333333333333,390.2206734814206,742,389.2603364094682C706.6666666666666,388.29999933751577,671.3333333333333,388.22474113430536,636,387.30017820824526C600.6666666666666,386.3756152821851,565.3333333333333,384.60174763327524,530,386.5380564039033C494.66666666666663,388.47436517453144,459.33333333333326,394.1208503646975,423.99999999999994,399.2214485879149C388.66666666666663,404.32204681113234,353.3333333333333,408.8767580674011,317.99999999999994,416.48022153471084C282.66666666666663,424.08368500202056,247.33333333333331,434.73590068037123,211.99999999999997,438.62123791794465C176.66666666666663,442.50657515551814,141.33333333333331,439.62503395231437,105.99999999999999,436.2479545800844C70.66666666666666,432.8708752078544,35.33333333333333,428.9982576665982,17.666666666666664,427.0619488959701L0,425.125640125342Z" class="layer"></path><path style="fill-opacity: 0.9; fill: rgb(191, 162, 105);" title="Africa" d="M0,427.7253141831239L17.666666666666664,432.3833586181463C35.33333333333333,437.0414030531688,70.66666666666666,446.3574919232136,105.99999999999999,453.3954445379283C141.33333333333331,460.43339715264295,176.66666666666663,465.19321351202734,211.99999999999997,467.3423122022961C247.33333333333331,469.4914108925649,282.66666666666663,469.02979191371804,318,464.35821844753457C353.3333333333333,459.68664498135104,388.66666666666663,450.8051170278309,423.99999999999994,441.95962821387633C459.33333333333326,433.1141393999218,494.66666666666663,424.30468972553274,530,418.5657217433933C565.3333333333333,412.82675376125394,600.6666666666666,410.15826747136407,636,408.83780399742955C671.3333333333333,407.517340523495,706.6666666666666,407.54489986551573,742,408.5084168615474C777.3333333333333,409.47193385757913,812.6666666666665,411.3714085076218,830.3333333333333,412.3211458326432L848,413.27088315766457L848,423.72329360636513L830.3333333333331,422.6198599508436C812.6666666666665,421.51642629532216,777.3333333333333,419.3095589842792,742,418.1669062651129C706.6666666666666,417.0242535459465,671.3333333333333,416.9458154186568,636,417.95729626955153C600.6666666666666,418.96877712044625,565.3333333333333,421.07017694952526,530,426.17793000192114C494.66666666666663,431.285683054317,459.33333333333326,439.39978933002965,423.99999999999994,447.8811768369029C388.66666666666663,456.3625643437762,353.3333333333333,465.2112330818101,317.99999999999994,469.6204628114503C282.66666666666663,474.0296925410905,247.33333333333331,473.9994832623371,211.99999999999997,471.25520878189036C176.66666666666663,468.5109343014435,141.33333333333331,463.0525946193035,105.99999999999999,455.51193465256017C70.66666666666666,447.97127468581687,35.33333333333333,438.3482944344704,17.666666666666664,433.5368043087972L0,428.7253141831239Z" class="layer"></path><path style="fill-opacity: 0.9; fill: rgb(162, 191, 105);" title="Western Europe" d="M0,236.5974812351355L17.666666666666664,232.95885310738203C35.33333333333333,229.32022497962856,70.66666666666666,222.0429687241217,105.99999999999999,215.23263132092717C141.33333333333331,208.4222939177327,176.66666666666663,202.07887536685058,211.99999999999997,198.92492066751905C247.33333333333331,195.7709659681875,282.66666666666663,195.80647512040653,318,196.4374250564768C353.3333333333333,197.0683749925471,388.66666666666663,198.29476571246863,423.99999999999994,199.37646988678145C459.33333333333326,200.45817406109427,494.66666666666663,201.3951916897984,530,202.38123314805858C565.3333333333333,203.36727460631877,600.6666666666666,204.40233989413503,636,204.00617435258732C671.3333333333333,203.61000881103962,706.6666666666666,201.78261244012796,742,200.17940071680786C777.3333333333333,198.57618899348776,812.6666666666665,197.19716191775922,830.3333333333333,196.50764837989496L848,195.8181348420307L848,269.3347996316588L830.3333333333331,269.4513968479003C812.6666666666665,269.5679940641417,777.3333333333333,269.8011884966246,742,270.5564204654614C706.6666666666666,271.31165243429814,671.3333333333333,272.5889219394887,636,272.3533425639463C600.6666666666666,272.1177631884039,565.3333333333333,270.3693349321285,530,270.50156677509324C494.66666666666663,270.633798618058,459.33333333333326,272.64669056026287,423.99999999999994,273.88262105242234C388.66666666666663,275.1185515445818,353.3333333333333,275.577520586696,317.99999999999994,275.3233916540242C282.66666666666663,275.0692627213525,247.33333333333331,274.1020358138949,211.99999999999997,275.9930306663928C176.66666666666663,277.8840255188907,141.33333333333331,282.6332421313441,105.99999999999999,286.9197797902575C70.66666666666666,291.2063174491709,35.33333333333333,295.0301761545443,17.666666666666664,296.942105507231L0,298.8540348599177Z" class="layer"></path><path style="fill-opacity: 0.9; fill: rgb(105, 191, 105);" title="Southern Europe" d="M0,301.71596653129905L17.666666666666664,299.80403717861236C35.33333333333333,297.8921078259257,70.66666666666666,294.06824912055225,105.99999999999999,289.78171146163885C141.33333333333331,285.4951738027255,176.66666666666663,280.74595719027207,211.99999999999997,278.8549623377742C247.33333333333331,276.96396748527627,282.66666666666663,277.93119439273386,318,278.1853233254056C353.3333333333333,278.4394522580773,388.66666666666663,277.9804832159632,423.99999999999994,276.74455272380374C459.33333333333326,275.5086222316442,494.66666666666663,273.4957302894393,530,273.3634984464745C565.3333333333333,273.23126660350977,600.6666666666666,274.9796948597852,636,275.2152742353276C671.3333333333333,275.45085361087,706.6666666666666,274.1735841056795,742,273.41835213684277C777.3333333333333,272.663120168006,812.6666666666665,272.42992573552306,830.3333333333333,272.3133285192816L848,272.1967313030401L848,331.13344418902L830.3333333333331,330.85626080677326C812.6666666666665,330.5790774245265,777.3333333333333,330.02471066003295,742,329.8227854809967C706.6666666666666,329.6208603019603,671.3333333333333,329.7713767083811,636,328.9289618210365C600.6666666666666,328.086546933692,565.3333333333333,326.251200752582,530,327.0782460068766C494.66666666666663,327.9052912611711,459.33333333333326,331.39472795087016,423.99999999999994,333.56025624888207C388.66666666666663,335.7257845468939,353.3333333333333,336.56740445321867,317.99999999999994,336.6715469668162C282.66666666666663,336.77568948041363,247.33333333333331,336.14235460128384,211.99999999999997,336.3638893121427C176.66666666666663,336.58542402300145,141.33333333333331,337.6618283238488,105.99999999999999,337.86269352819204C70.66666666666666,338.0635587325353,35.33333333333333,337.38888484037443,17.666666666666664,337.051547894294L0,336.7142109482136Z" class="layer"></path><path style="fill-opacity: 0.9; fill: rgb(105, 191, 162);" title="UK" d="M0,48.345975739829214L17.666666666666664,43.24458253559195C35.33333333333333,38.14318933135471,70.66666666666666,27.94040292288021,105.99999999999999,19.93441406586417C141.33333333333331,11.928425208848125,176.66666666666663,6.119233903290535,211.99999999999997,3.1629644842229157C247.33333333333331,0.2066950651552967,282.66666666666663,0.10334753257764835,318,4.3636508178367235C353.3333333333333,8.623954103095798,388.66666666666663,17.247908206191596,423.99999999999994,25.5109409262854C459.33333333333326,33.773973646379204,494.66666666666663,41.676084983471014,530,45.516638290260815C565.3333333333333,49.35719159705062,600.6666666666666,49.13618687353842,636,48.67112297693897C671.3333333333333,48.20605908033951,706.6666666666666,47.4969360106528,742,45.79779657760676C777.3333333333333,44.09865714456072,812.6666666666665,41.409501348155345,830.3333333333333,40.06492344995266L848,38.72034555174997L848,192.9562031706493L830.3333333333331,193.6457167085136C812.6666666666665,194.33523024637785,777.3333333333333,195.7142573221064,742,197.3174690454265C706.6666666666666,198.9206807687466,671.3333333333333,200.74807713965828,636,201.14424268120598C600.6666666666666,201.54040822275368,565.3333333333333,200.5053429349374,530,199.5193014766772C494.66666666666663,198.53326001841702,459.33333333333326,197.59624238971293,423.99999999999994,196.5145382154001C388.66666666666663,195.43283404108726,353.3333333333333,194.2064433211657,317.99999999999994,193.57549338509543C282.66666666666663,192.94454344902516,247.33333333333331,192.90903429680617,211.99999999999997,196.06298899613773C176.66666666666663,199.21694369546927,141.33333333333331,205.56036224635136,105.99999999999999,212.37069964954586C70.66666666666666,219.18103705274035,35.33333333333333,226.45829330824725,17.666666666666664,230.09692143600068L0,233.73554956375415Z" class="layer"></path><path style="fill-opacity: 0.9; fill: rgb(105, 162, 191);" title="Northern Europe" d="M0,403.7915294772337L17.666666666666664,409.7605119677767C35.33333333333333,415.7294944583198,70.66666666666666,427.6674594394059,105.99999999999999,435.0772125315508C141.33333333333331,442.48696562369577,176.66666666666663,445.36850682689953,211.99999999999997,446.7072548642901C247.33333333333331,448.0460029016807,282.66666666666663,447.8419577732581,318,444.16464056920637C353.3333333333333,440.48732336515457,388.66666666666663,433.3367340854736,423.99999999999994,423.01205058729215C459.33333333333326,412.6873670891107,494.66666666666663,399.1885893724287,530,393.3261343385426C565.3333333333333,387.4636793046566,600.6666666666666,389.2375469535665,636,390.1621098796266C671.3333333333333,391.0866728056867,706.6666666666666,391.1619310088971,742,392.12226808084955C777.3333333333333,393.08260515280193,812.6666666666665,394.92802109349634,830.3333333333333,395.8507290638436L848,396.7734370341908L848,410.40895148628323L830.3333333333331,409.4592141612618C812.6666666666665,408.5094768362404,777.3333333333333,406.61000218619773,742,405.646485190166C706.6666666666666,404.68296819413433,671.3333333333333,404.6554088521136,636,403.60152901349477C600.6666666666666,402.5476491748759,565.3333333333333,400.4674488396589,530,406.20641682179837C494.66666666666663,411.9453848039377,459.33333333333326,425.5035211034336,423.99999999999994,436.7233532299416C388.66666666666663,447.9431853564496,353.3333333333333,456.82471330996975,317.99999999999994,461.4962867761532C282.66666666666663,466.1678602423367,247.33333333333331,466.6294792211836,211.99999999999997,464.4803805309148C176.66666666666663,462.33128184064606,141.33333333333331,457.5714654812616,105.99999999999999,448.58870994455003C70.66666666666666,439.6059544078385,35.33333333333333,426.4002596937998,17.666666666666664,419.79741233678044L0,413.1945649797611Z" class="layer"></path><path style="fill-opacity: 0.9; fill: rgb(105, 105, 191);" title="Ireland (domestic)" d="M0,339.576142619595L17.666666666666664,339.91347956567535C35.33333333333333,340.2508165117558,70.66666666666666,340.92549040391657,105.99999999999999,347.1051428647141C141.33333333333331,353.2847953255116,176.66666666666663,364.96942635494577,211.99999999999997,377.418299138108C247.33333333333331,389.86717192127037,282.66666666666663,403.0802864581608,318,407.40948809847157C353.3333333333333,411.73868973878245,388.66666666666663,407.1839784825137,423.99999999999994,404.67660834597564C459.33333333333326,402.1692382094377,494.66666666666663,401.7092091926305,530,405.8984941734516C565.3333333333333,410.08777915427265,600.6666666666666,418.926378132722,636,423.99597209616616C671.3333333333333,429.06556605961026,706.6666666666666,430.36615500804913,742,432.35625749435223C777.3333333333333,434.3463599806554,812.6666666666665,437.02597600482284,830.3333333333333,438.36578401690656L848,439.7055920289903L848,441.27965444825L830.3333333333331,439.9350765500473C812.6666666666665,438.59049865184465,777.3333333333333,435.9013428554393,742,434.20220342239327C706.6666666666666,432.5030639893472,671.3333333333333,431.7939409196605,636,428.3641278064486C600.6666666666666,424.9343146932367,565.3333333333333,418.78381153649957,530,417.49037741723913C494.66666666666663,416.1969432979787,459.33333333333326,419.76057821619503,423.99999999999994,425.11769031514365C388.66666666666663,430.4748024140923,353.3333333333333,437.6253916937733,317.99999999999994,435.60163501096406C282.66666666666663,433.57787832815484,247.33333333333331,422.37977568285555,211.99999999999997,411.32476962112526C176.66666666666663,400.26976355939496,141.33333333333331,389.35785408123377,105.99999999999999,382.37580077775647C70.66666666666666,375.39374747427905,35.33333333333333,372.34155034548553,17.666666666666664,370.81545178108877L0,369.28935321669195Z" class="layer"></path><path style="fill-opacity: 0.9; fill: rgb(162, 105, 191);" title="Asia" d="M0,430.6540242601708L17.666666666666664,435.62105131823307C35.33333333333333,440.5880783762954,70.66666666666666,450.52213249242004,105.99999999999999,458.2183293915524C141.33333333333331,465.91452629068476,176.66666666666663,471.37286597282485,211.99999999999997,474.11714045327165C247.33333333333331,476.86141493371844,282.66666666666663,476.8916242124719,318,472.48239448283175C353.3333333333333,468.0731647531915,388.66666666666663,459.2244960151576,423.99999999999994,450.7431085082843C459.33333333333326,442.26172100141105,494.66666666666663,434.14761472569836,530,429.0398616733024C565.3333333333333,423.9321086209066,600.6666666666666,421.83070879182753,636,420.8192279409328C671.3333333333333,419.80774709003816,706.6666666666666,419.88618521732786,742,421.02883793649414C777.3333333333333,422.17149065566053,812.6666666666665,424.3783579667035,830.3333333333333,425.48179162222493L848,426.5852252777465L848,436.84366035760894L830.3333333333331,435.50385234552516C812.6666666666665,434.1640443334415,777.3333333333333,431.48442830927405,742,429.4943258229709C706.6666666666666,427.5042233366678,671.3333333333333,426.2036343882289,636,426.4731329539507C600.6666666666666,426.74263151967244,565.3333333333333,428.58221759955484,530,433.4530663080419C494.66666666666663,438.323915016529,459.33333333333326,446.2260263536208,423.99999999999994,454.4890590737146C388.66666666666663,462.7520917938084,353.3333333333333,471.3760458969042,317.99999999999994,475.63634918216326C282.66666666666663,479.8966524674223,247.33333333333331,479.7933049348446,211.99999999999997,476.837035515777C176.66666666666663,473.8807660967094,141.33333333333331,468.0715747911518,105.99999999999999,460.0655859341358C70.66666666666666,452.05959707711975,35.33333333333333,441.85681066864527,17.666666666666664,436.75541746440797L0,431.6540242601708Z" class="layer"></path><path style="fill-opacity: 0.9; fill: rgb(191, 105, 162);" title="Americas" d="M0,372.1512848880733L17.666666666666664,373.67738345247005C35.33333333333333,375.2034820168668,70.66666666666666,378.2556791456604,105.99999999999999,372.62562356323747C141.33333333333331,366.9955679808145,176.66666666666663,352.683259687175,211.99999999999997,345.8437729799201C247.33333333333331,339.00428627266524,282.66666666666663,339.637621151795,318,339.5334786381975C353.3333333333333,339.4293361246,388.66666666666663,338.5877162182752,423.99999999999994,336.42218792026335C459.33333333333326,334.25665962225145,494.66666666666663,330.76722293255244,530,329.9401776782579C565.3333333333333,329.11313242396335,600.6666666666666,330.94847860507326,636,331.7908934924178C671.3333333333333,332.6333083797624,706.6666666666666,332.4827919733416,742,332.68471715237797C777.3333333333333,332.8866423314143,812.6666666666665,333.4410090959078,830.3333333333333,333.71819247815455L848,333.9953758604013L848,369.22257481102633L830.3333333333331,368.21983875134976C812.6666666666665,367.2171026916732,777.3333333333333,365.21163057232,742,364.17338536042445C706.6666666666666,363.13514014852893,671.3333333333333,363.06412184409095,636,361.96837300509446C600.6666666666666,360.87262416609803,565.3333333333333,358.75214479254305,530,360.0021199493862C494.66666666666663,361.2520951062293,459.33333333333326,365.8725247934706,423.99999999999994,369.2432443175419C388.66666666666663,372.61396384161327,353.3333333333333,374.73497320251477,317.99999999999994,375.2848350745626C282.66666666666663,375.8346969466104,247.33333333333331,374.81341132980447,211.99999999999997,381.0116133477313C176.66666666666663,387.20981536565813,141.33333333333331,400.62750501831766,105.99999999999999,405.1504170337933C70.66666666666666,409.6733290492689,35.33333333333333,405.30146342756063,17.666666666666664,403.1155306167065L0,400.9295978058524Z" class="layer"></path><defs><path d="M0,420.5910683882422L17.666666666666664,421.6301085811576C35.33333333333333,422.66914877407294,70.66666666666666,424.7472291599038,105.99999999999999,426.268027850835C141.33333333333331,427.7888265417663,176.66666666666663,428.75234353779797,211.99999999999997,423.71057391004786C247.33333333333331,418.66880428229774,282.66666666666663,407.62174803076573,318,400.4292897507072C353.3333333333333,393.2368314706486,388.66666666666663,389.8989711620635,423.99999999999994,385.6633122884191C459.33333333333326,381.4276534147747,494.66666666666663,376.294195976071,530,374.7010540123354C565.3333333333333,373.1079120485998,600.6666666666666,375.05508555983226,636,376.06524144236056C671.3333333333333,377.07539732488885,706.6666666666666,377.14853557871305,742,378.147826720637C777.3333333333333,379.147117862561,812.6666666666665,381.07256189258476,830.3333333333333,382.03528390759664L848,382.99800592260857" id="path-Eastern_Europe"></path><path d="M0,428.3564429899236L17.666666666666664,433.0693554691381C35.33333333333333,437.7822679483527,70.66666666666666,447.2080929067818,105.99999999999999,454.4755443963775C141.33333333333331,461.7429958859732,176.66666666666663,466.8520739067355,211.99999999999997,469.29876049209327C247.33333333333331,471.74544707745105,282.66666666666663,471.5297422274043,318,466.98934062949246C353.3333333333333,462.4489390315806,388.66666666666663,453.5838406858036,423.99999999999994,444.92040252538965C459.33333333333326,436.2569643649757,494.66666666666663,427.7951863899249,530,422.37182587265727C565.3333333333333,416.9484653553896,600.6666666666666,414.56352229590516,636,413.39755013349054C671.3333333333333,412.2315779710759,706.6666666666666,412.2845767057311,742,413.33766156333013C777.3333333333333,414.3907464209292,812.6666666666665,416.443917401472,830.3333333333333,417.4705028917434L848,418.49708838201485" id="path-Africa"></path><path d="M0,267.7257580475266L17.666666666666664,264.9504793073065C35.33333333333333,262.17520056708645,70.66666666666666,256.6246430866463,105.99999999999999,251.07620555559237C141.33333333333331,245.5277680245384,176.66666666666663,239.98145044287065,211.99999999999997,237.45897566695592C247.33333333333331,234.9365008910412,282.66666666666663,235.4378689208795,318,235.8804083552505C353.3333333333333,236.32294778962154,388.66666666666663,236.70665862852525,423.99999999999994,236.6295454696019C459.33333333333326,236.55243231067857,494.66666666666663,236.01449515392818,530,236.4413999615759C565.3333333333333,236.86830476922364,600.6666666666666,238.26005154126946,636,238.17975845826683C671.3333333333333,238.09946537526417,706.6666666666666,236.54713243721304,742,235.3679105911346C777.3333333333333,234.1886887450562,812.6666666666665,233.3825779909505,830.3333333333333,232.97952261389764L848,232.57646723684476" id="path-Western_Europe"></path><path d="M0,319.2150887397563L17.666666666666664,318.4277925364531C35.33333333333333,317.64049633315005,70.66666666666666,316.0659039265438,105.99999999999999,313.8222024949155C141.33333333333331,311.57850106328715,176.66666666666663,308.66569060663676,211.99999999999997,307.6094258249584C247.33333333333331,306.55316104328006,282.66666666666663,307.35344193657374,318,307.4284351461108C353.3333333333333,307.503428355648,388.66666666666663,306.85313388142856,423.99999999999994,305.1524044863429C459.33333333333326,303.4516750912572,494.66666666666663,300.70051077530525,530,300.22087222667557C565.3333333333333,299.7412336780459,600.6666666666666,301.5331208967386,636,302.0721180281821C671.3333333333333,302.61111515962557,706.6666666666666,301.89722220381987,742,301.6205688089197C777.3333333333333,301.3439154140195,812.6666666666665,301.50450158002474,830.3333333333333,301.58479466302737L848,301.66508774603005" id="path-Southern_Europe"></path><path d="M0,141.04076265179168L17.666666666666664,136.6707519857963C35.33333333333333,132.30074131980098,70.66666666666666,123.56071998781029,105.99999999999999,116.15255685770501C141.33333333333331,108.74439372759974,176.66666666666663,102.6680887993799,211.99999999999997,99.61297674018032C247.33333333333331,96.55786468098073,282.66666666666663,96.5239454908014,318,98.96957210146607C353.3333333333333,101.41519871213075,388.66666666666663,106.34037112363943,423.99999999999994,111.01273957084274C459.33333333333326,115.68510801804607,494.66666666666663,120.10467250094402,530,122.51796988346902C565.3333333333333,124.93126726599402,600.6666666666666,125.33829754814606,636,124.90768282907247C671.3333333333333,124.4770681099989,706.6666666666666,123.20880838969971,742,121.55763281151664C777.3333333333333,119.90645723333355,812.6666666666665,117.87236579726658,830.3333333333333,116.85532007923311L848,115.83827436119964" id="path-UK"></path><path d="M0,408.4930472284974L17.666666666666664,414.77896215227855C35.33333333333333,421.0648770760598,70.66666666666666,433.6367069236222,105.99999999999999,441.8329612380504C141.33333333333331,450.0292155524787,176.66666666666663,453.8498943337728,211.99999999999997,455.59381769760245C247.33333333333331,457.3377410614321,282.66666666666663,457.00490900779744,318,452.8304636726798C353.3333333333333,448.65601833756216,388.66666666666663,440.63995972096166,423.99999999999994,429.86770190861694C459.33333333333326,419.09544409627216,494.66666666666663,405.5669870881832,530,399.7662755801705C565.3333333333333,393.96556407215775,600.6666666666666,395.8925980642212,636,396.8818194465607C671.3333333333333,397.87104082890016,706.6666666666666,397.9224496015157,742,398.8843766355078C777.3333333333333,399.84630366949983,812.6666666666665,401.7187489648684,830.3333333333333,402.6549716125527L848,403.591194260237" id="path-Northern_Europe"></path><path d="M0,354.4327479181435L17.666666666666664,355.3644656733821C35.33333333333333,356.2961834286207,70.66666666666666,358.15961893909787,105.99999999999999,364.74047182123525C141.33333333333331,371.32132470337274,176.66666666666663,382.61959495717036,211.99999999999997,394.37153437961666C247.33333333333331,406.1234738020629,282.66666666666663,418.3290823931578,318,421.5055615547179C353.3333333333333,424.6820407162778,388.66666666666663,418.829390448303,423.99999999999994,414.8971493305596C459.33333333333326,410.96490821281634,494.66666666666663,408.9530762453046,530,411.6944357953453C565.3333333333333,414.43579534538605,600.6666666666666,421.93034641297936,636,426.18004995130735C671.3333333333333,430.42975348963546,706.6666666666666,431.43460949869825,742,433.2792304583728C777.3333333333333,435.12385141804737,812.6666666666665,437.8082373283337,830.3333333333333,439.1504302834769L848,440.4926232386201" id="path-Ireland_(domestic)"></path><path d="M0,431.620635057338L17.666666666666664,436.57707672229327C35.33333333333333,441.5335183872485,70.66666666666666,451.446401717159,105.99999999999999,459.21972612903863C141.33333333333331,466.9930505409183,176.66666666666663,472.6268160347671,211.99999999999997,475.4770879845243C247.33333333333331,478.3273599342815,282.66666666666663,478.3941383399471,318,474.0593718324975C353.3333333333333,469.72460532504783,388.66666666666663,460.98829390448293,423.99999999999994,452.61608379099937C459.33333333333326,444.24387367751586,494.66666666666663,436.23576487111364,530,431.24646399067217C565.3333333333333,426.2571631102307,600.6666666666666,424.28667015574996,636,423.6461804474417C671.3333333333333,423.0056907391335,706.6666666666666,423.6952042769978,742,425.2615818797325C777.3333333333333,426.8279594824673,812.6666666666665,429.2712011500725,830.3333333333333,430.49282198387505L848,431.7144428176777" id="path-Asia"></path><path d="M0,386.54044134696284L17.666666666666664,388.39645703458825C35.33333333333333,390.2524727222137,70.66666666666666,393.96450409746467,105.99999999999999,388.88802029851536C141.33333333333331,383.81153649956605,176.66666666666663,369.94653752641653,211.99999999999997,363.42769316382567C247.33333333333331,356.90884880123485,282.66666666666663,357.7361590492027,318,357.40915685638004C353.3333333333333,357.0821546635574,388.66666666666663,355.60084002994427,423.99999999999994,352.8327161189026C459.33333333333326,350.064592207861,494.66666666666663,346.0096590193909,530,344.971148813822C565.3333333333333,343.9326386082532,600.6666666666666,345.9105513855857,636,346.87963324875614C671.3333333333333,347.8487151119267,706.6666666666666,347.8089660609353,742,348.4290512564012C777.3333333333333,349.0491364518672,812.6666666666665,350.3290558937905,830.3333333333333,350.9690156147521L848,351.6089753357138" id="path-Americas"></path></defs><text class="label" dy="0.5ex"><textPath style="font-size: 11px; font-family: Arial,Helvetica; font-weight: normal;" text-anchor="middle" startOffset="38%" xlink:href="#path-Eastern_Europe">Eastern Europe</textPath></text><text class="label" dy="0.5ex"><textPath style="font-size: 11px; font-family: Arial,Helvetica; font-weight: normal;" text-anchor="end" startOffset="95%" xlink:href="#path-Africa">Africa</textPath></text><text class="label" dy="0.5ex"><textPath style="font-size: 11px; font-family: Arial,Helvetica; font-weight: normal;" text-anchor="middle" startOffset="38%" xlink:href="#path-Western_Europe">Western Europe</textPath></text><text class="label" dy="0.5ex"><textPath style="font-size: 11px; font-family: Arial,Helvetica; font-weight: normal;" text-anchor="middle" startOffset="25%" xlink:href="#path-Southern_Europe">Southern Europe</textPath></text><text class="label" dy="0.5ex"><textPath style="font-size: 11px; font-family: Arial,Helvetica; font-weight: normal;" text-anchor="middle" startOffset="13%" xlink:href="#path-UK">UK</textPath></text><text class="label" dy="0.5ex"><textPath style="font-size: 11px; font-family: Arial,Helvetica; font-weight: normal;" text-anchor="middle" startOffset="25%" xlink:href="#path-Northern_Europe">Northern Europe</textPath></text><text class="label" dy="0.5ex"><textPath style="font-size: 11px; font-family: Arial,Helvetica; font-weight: normal;" text-anchor="middle" startOffset="13%" xlink:href="#path-Ireland_(domestic)">Ireland (domestic)</textPath></text><text class="label" dy="0.5ex"><textPath style="font-size: 11px; font-family: Arial,Helvetica; font-weight: normal;" text-anchor="end" startOffset="95%" xlink:href="#path-Asia">Asia</textPath></text><text class="label" dy="0.5ex"><textPath style="font-size: 11px; font-family: Arial,Helvetica; font-weight: normal;" text-anchor="middle" startOffset="38%" xlink:href="#path-Americas">Americas</textPath></text></svg>