<?xml version="1.0" encoding="UTF-8" standalone="no"?>
<svg
   xmlns:dc="http://purl.org/dc/elements/1.1/"
   xmlns:cc="http://creativecommons.org/ns#"
   xmlns:rdf="http://www.w3.org/1999/02/22-rdf-syntax-ns#"
   xmlns:svg="http://www.w3.org/2000/svg"
   xmlns="http://www.w3.org/2000/svg"
   xmlns:xlink="http://www.w3.org/1999/xlink"
   xmlns:sodipodi="http://sodipodi.sourceforge.net/DTD/sodipodi-0.dtd"
   xmlns:inkscape="http://www.inkscape.org/namespaces/inkscape"
   version="1.1"
   id="Layer_1"
   x="0px"
   y="0px"
   width="847px"
   height="500px"
   viewBox="-13 0 874 500"
   preserveAspectRatio="xMinYMin meet"
   enable-background="new 0 0 847 500"
   xml:space="preserve"
   inkscape:version="0.48.5 r10040"
   sodipodi:docname="141222_DestRegionsYears.svg"><metadata
   id="metadata3239"><rdf:RDF><cc:Work
       rdf:about=""><dc:format>image/svg+xml</dc:format><dc:type
         rdf:resource="http://purl.org/dc/dcmitype/StillImage" /></cc:Work></rdf:RDF></metadata><sodipodi:namedview
   pagecolor="#ffffff"
   bordercolor="#666666"
   borderopacity="1"
   objecttolerance="10"
   gridtolerance="10"
   guidetolerance="10"
   inkscape:pageopacity="0"
   inkscape:pageshadow="2"
   inkscape:window-width="1366"
   inkscape:window-height="705"
   id="namedview3237"
   showgrid="false"
   inkscape:zoom="1.036"
   inkscape:cx="423.5"
   inkscape:cy="250"
   inkscape:window-x="-8"
   inkscape:window-y="-8"
   inkscape:window-maximized="1"
   inkscape:current-layer="Layer_1" /><g
   transform="matrix(1,0,0,0.95052991,0,474.68053)"
   style="font-size:10px;stroke-width:1px;font-family:'Arial, Helvetica'"
   class="x axis"
   id="g3114"><g
     class="tick"
     id="g3116"><line
   style="fill:none;stroke:#cccccc"
   x2="0"
   y2="-480"
   id="line3118"
   x1="0"
   y1="0" /><text
   style="text-anchor:middle"
   dy="3.7651825e-039"
   x="0"
   y="3"
   id="text3120">2005</text>

</g><g
     transform="translate(106,0)"
     class="tick"
     id="g3122"><line
   style="fill:none;stroke:#cccccc"
   x2="0"
   y2="-480"
   id="line3124"
   x1="0"
   y1="0" /><text
   style="text-anchor:middle"
   dy="3.7651825e-039"
   x="0"
   y="3"
   id="text3126">2006</text>

</g><g
     transform="translate(212,0)"
     class="tick"
     id="g3128"><line
   style="fill:none;stroke:#cccccc"
   x2="0"
   y2="-480"
   id="line3130"
   x1="0"
   y1="0" /><text
   style="text-anchor:middle"
   dy="3.7651825e-039"
   x="0"
   y="3"
   id="text3132">2007</text>

</g><g
     transform="translate(318,0)"
     class="tick"
     id="g3134"><line
   style="fill:none;stroke:#cccccc"
   x2="0"
   y2="-480"
   id="line3136"
   x1="0"
   y1="0" /><text
   style="text-anchor:middle"
   dy="3.7651825e-039"
   x="0"
   y="3"
   id="text3138">2008</text>

</g><g
     transform="translate(424,0)"
     class="tick"
     id="g3140"><line
   style="fill:none;stroke:#cccccc"
   x2="0"
   y2="-480"
   id="line3142"
   x1="0"
   y1="0" /><text
   style="text-anchor:middle"
   dy="3.7651825e-039"
   x="0"
   y="3"
   id="text3144">2009</text>

</g><g
     transform="translate(530,0)"
     class="tick"
     id="g3146"><line
   style="fill:none;stroke:#cccccc"
   x2="0"
   y2="-480"
   id="line3148"
   x1="0"
   y1="0" /><text
   style="text-anchor:middle"
   dy="3.7651825e-039"
   x="0"
   y="3"
   id="text3150">2010</text>

</g><g
     transform="translate(636,0)"
     class="tick"
     id="g3152"><line
   style="fill:none;stroke:#cccccc"
   x2="0"
   y2="-480"
   id="line3154"
   x1="0"
   y1="0" /><text
   style="text-anchor:middle"
   dy="3.7651825e-039"
   x="0"
   y="3"
   id="text3156">2011</text>

</g><g
     transform="translate(742,0)"
     class="tick"
     id="g3158"><line
   style="fill:none;stroke:#cccccc"
   x2="0"
   y2="-480"
   id="line3160"
   x1="0"
   y1="0" /><text
   style="text-anchor:middle"
   dy="3.7651825e-039"
   x="0"
   y="3"
   id="text3162">2012</text>

</g><g
     transform="translate(848,0)"
     class="tick"
     id="g3164"><line
   style="fill:none;stroke:#cccccc"
   x2="0"
   y2="-480"
   id="line3166"
   x1="0"
   y1="0" /><text
   style="text-anchor:middle"
   dy="3.7651825e-039"
   x="0"
   y="3"
   id="text3168">2013</text>

</g></g><path
   style="fill:#bf6969;fill-opacity:0.9"
   title="Eastern Europe"
   d="m 0,409.06821 17.666667,0.1331 c 17.666666,0.13312 53,0.39935 88.333333,0.0843 35.33333,-0.31499 70.66667,-1.21119 106,-7.03079 35.33333,-5.81959 70.66667,-16.56255 106,-22.92977 35.33333,-6.36722 70.66667,-8.35867 106,-11.52349 35.33333,-3.16482 70.66667,-7.50302 106,-8.67663 35.33333,-1.17363 70.66667,0.81732 106,1.84614 35.33333,1.02882 70.66667,1.0955 106,2.07032 35.33333,0.97482 70.66667,2.85779 88.33333,3.79928 l 17.66667,0.9415 0,20.49372 -17.66667,-0.86635 c -17.66666,-0.86635 -53,-2.59903 -88.33333,-3.50071 -35.33333,-0.90167 -70.66667,-0.97233 -106,-1.84043 -35.33333,-0.86808 -70.66667,-2.53359 -106,-0.71557 -35.33333,1.81804 -70.66667,7.11961 -106,11.90865 -35.33333,4.78902 -70.66667,9.06552 -106,16.20453 -35.33333,7.13902 -70.66667,17.14056 -106,20.78855 -35.33333,3.64801 -70.66667,0.94248 -106,-2.22831 -35.333333,-3.1708 -70.666667,-6.80685 -88.333333,-8.62489 L 0,417.58337 z"
   class="layer"
   id="path3172"
   inkscape:connector-curvature="0" /><path
   style="fill:#bfa269;fill-opacity:0.9"
   title="Africa"
   d="m 0,420.02425 17.666667,4.37351 c 17.666666,4.37352 53,13.12054 88.333333,19.72857 35.33333,6.60805 70.66667,11.07712 106,13.09494 35.33333,2.01783 70.66667,1.58441 106,-2.80181 35.33333,-4.38621 70.66667,-12.72523 106,-21.03039 35.33333,-8.30518 70.66667,-16.5765 106,-21.9649 35.33333,-5.38842 70.66667,-7.89391 106,-9.1337 35.33333,-1.23981 70.66667,-1.21393 106,-0.30927 35.33333,0.90467 70.66667,2.68811 88.33333,3.57983 L 848,406.45275 l 0,9.81394 -17.66667,-1.03604 c -17.66666,-1.03603 -53,-3.1081 -88.33333,-4.18094 -35.33333,-1.07286 -70.66667,-1.1465 -106,-0.19681 -35.33333,0.9497 -70.66667,2.92274 -106,7.71848 -35.33333,4.79575 -70.66667,12.41422 -106,20.37753 -35.33333,7.96331 -70.66667,16.27146 -106,20.41135 -35.33333,4.1399 -70.66667,4.11154 -106,1.53488 -35.33333,-2.57663 -70.66667,-7.70155 -106,-14.7816 C 70.666667,439.0335 35.333333,429.99833 17.666667,425.48074 L 0,420.96317 z"
   class="layer"
   id="path3174"
   inkscape:connector-curvature="0" /><path
   style="fill:#a2bf69;fill-opacity:0.9"
   title="Western Europe"
   d="m 0,240.57131 17.666667,-3.41637 c 17.666666,-3.41636 53,-10.2491 88.333333,-16.64343 35.33333,-6.39433 70.66667,-12.35027 106,-15.31156 35.33333,-2.9613 70.66667,-2.92797 106,-2.33556 35.33333,0.59242 70.66667,1.74389 106,2.75951 35.33333,1.01564 70.66667,1.89542 106,2.82124 35.33333,0.9258 70.66667,1.89764 106,1.52567 35.33333,-0.37196 70.66667,-2.08774 106,-3.59302 35.33333,-1.50528 70.66667,-2.80006 88.33333,-3.44747 L 848,202.28293 l 0,69.02596 -17.66667,0.10947 c -17.66666,0.10948 -53,0.32843 -88.33333,1.03752 -35.33333,0.70912 -70.66667,1.90836 -106,1.68717 -35.33333,-0.22118 -70.66667,-1.86282 -106,-1.73867 -35.33333,0.12415 -70.66667,2.01409 -106,3.17454 -35.33333,1.16043 -70.66667,1.59136 -106,1.35275 -35.33333,-0.2386 -70.66667,-1.14675 -106,0.62874 -35.33333,1.77548 -70.66667,6.2346 -106,10.25929 -35.333333,4.0247 -70.666667,7.61498 -88.333333,9.41013 L 0,299.02497 z"
   class="layer"
   id="path3176"
   inkscape:connector-curvature="0" /><path
   style="fill:#69bf69;fill-opacity:0.9"
   title="Southern Europe"
   d="m 0,301.71208 17.666667,-1.79514 c 17.666666,-1.79515 53,-5.38543 88.333333,-9.41012 35.33333,-4.0247 70.66667,-8.48381 106,-10.2593 35.33333,-1.77549 70.66667,-0.86734 106,-0.62873 35.33333,0.23861 70.66667,-0.19233 106,-1.35276 35.33333,-1.16044 70.66667,-3.05038 106,-3.17453 35.33333,-0.12415 70.66667,1.51747 106,1.73866 35.33333,0.22119 70.66667,-0.97806 106,-1.68715 35.33333,-0.70911 70.66667,-0.92805 88.33333,-1.03754 L 848,273.996 l 0,55.33661 -17.66667,-0.26024 c -17.66666,-0.26026 -53,-0.78077 -88.33333,-0.97035 -35.33333,-0.1896 -70.66667,-0.0482 -106,-0.83923 -35.33333,-0.79095 -70.66667,-2.51418 -106,-1.73766 -35.33333,0.77653 -70.66667,4.0528 -106,6.08606 -35.33333,2.03325 -70.66667,2.82346 -106,2.92123 -35.33333,0.0978 -70.66667,-0.49686 -106,-0.28887 -35.33333,0.20802 -70.66667,1.21866 -106,1.40727 -35.333333,0.18859 -70.666667,-0.44488 -88.333333,-0.7616 L 0,334.57249 z"
   class="layer"
   id="path3178"
   inkscape:connector-curvature="0" /><path
   style="fill:#69bfa2;fill-opacity:0.9"
   title="UK"
   d="M 0,63.819013 17.666667,59.029234 C 35.333333,54.239457 70.666667,44.659898 106,37.142948 141.33333,29.626 176.66667,24.171659 212,21.395971 c 35.33333,-2.775687 70.66667,-2.872722 106,1.127343 35.33333,4.000066 70.66667,12.097233 106,19.855524 35.33333,7.758293 70.66667,15.17771 106,18.783666 35.33333,3.605956 70.66667,3.398451 106,2.961794 35.33333,-0.436654 70.66667,-1.102462 106,-2.697811 35.33333,-1.595347 70.66667,-4.120239 88.33333,-5.382684 L 848,54.781357 l 0,144.814463 -17.66667,0.6474 c -17.66666,0.64739 -53,1.94218 -88.33333,3.44746 -35.33333,1.50529 -70.66667,3.22106 -106,3.59301 -35.33333,0.37197 -70.66667,-0.59986 -106,-1.52567 -35.33333,-0.92582 -70.66667,-1.80559 -106,-2.82122 -35.33333,-1.01563 -70.66667,-2.16711 -106,-2.75952 -35.33333,-0.5924 -70.66667,-0.62575 -106,2.33554 -35.33333,2.96131 -70.66667,8.91725 -106,15.31157 -35.333333,6.39434 -70.666667,13.22707 -88.333333,16.64345 L 0,237.88419 z"
   class="layer"
   id="path3180"
   inkscape:connector-curvature="0" /><path
   style="fill:#69a2bf;fill-opacity:0.9"
   title="Northern Europe"
   d="m 0,397.55244 17.666667,5.60437 c 17.666666,5.60438 53,16.81311 88.333333,23.77026 35.33333,6.95713 70.66667,9.66265 106,10.91961 35.33333,1.25699 70.66667,1.06539 106,-2.3873 35.33333,-3.45268 70.66667,-10.16648 106,-19.86049 35.33333,-9.69401 70.66667,-22.36823 106,-27.87257 35.33333,-5.50437 70.66667,-3.83885 106,-2.97077 35.33333,0.8681 70.66667,0.93877 106,1.84043 35.33333,0.90168 70.66667,2.63438 88.33333,3.50071 L 848,390.96304 l 0,12.80261 -17.66667,-0.89173 c -17.66666,-0.89172 -53,-2.67518 -88.33333,-3.57984 -35.33333,-0.90467 -70.66667,-0.93053 -106,-1.92004 -35.33333,-0.9895 -70.66667,-2.94263 -106,2.44578 -35.33333,5.3884 -70.66667,18.11835 -106,28.65282 -35.33333,10.53449 -70.66667,18.8735 -106,23.2597 -35.33333,4.38621 -70.66667,4.81963 -106,2.80181 -35.33333,-2.01781 -70.66667,-6.48688 -106,-14.92094 C 70.666667,431.17917 35.333333,418.78013 17.666667,412.58062 L 0,406.3811 z"
   class="layer"
   id="path3182"
   inkscape:connector-curvature="0" /><path
   style="fill:#6969bf;fill-opacity:0.9"
   title="Ireland (domestic)"
   d="m 0,337.25959 17.666667,0.31674 c 17.666666,0.31673 53,0.95018 88.333333,6.75237 35.33333,5.80216 70.66667,16.77305 106,28.46149 35.33333,11.68845 70.66667,24.09446 106,28.15921 35.33333,4.06475 70.66667,-0.21174 106,-2.56595 35.33333,-2.35421 70.66667,-2.78615 106,1.14725 35.33333,3.93338 70.66667,12.23208 106,16.99201 35.33333,4.75992 70.66667,5.98106 106,7.8496 35.33333,1.86854 70.66667,4.38448 88.33333,5.64244 L 848,431.27272 l 0,1.47791 -17.66667,-1.26244 c -17.66666,-1.26246 -53,-3.78734 -88.33333,-5.38269 -35.33333,-1.59535 -70.66667,-2.26115 -106,-5.48145 -35.33333,-3.22032 -70.66667,-8.99512 -106,-10.20955 -35.33333,-1.21442 -70.66667,2.13152 -106,7.1614 -35.33333,5.02989 -70.66667,11.74369 -106,9.84354 -35.33333,-1.90013 -70.66667,-12.4142 -106,-22.79392 C 176.66667,394.2458 141.33333,384.00043 106,377.44488 70.666667,370.88932 35.333333,368.02354 17.666667,366.59068 L 0,365.1578 z"
   class="layer"
   id="path3184"
   inkscape:connector-curvature="0" /><path
   style="fill:#a269bf;fill-opacity:0.9"
   title="Asia"
   d="m 0,416.57568 17.666667,1.74301 c 17.666666,1.74297 53,5.22896 88.333333,7.92965 35.33333,2.7007 70.66667,4.61611 106,5.57911 35.33333,0.96299 70.66667,0.97359 106,-0.57365 35.33333,-1.54726 70.66667,-4.65238 106,-7.62859 35.33333,-2.97623 70.66667,-5.82358 106,-7.61596 35.33333,-1.79238 70.66667,-2.52978 106,-2.88472 35.33333,-0.35495 70.66667,-0.32741 106,0.0736 35.33333,0.40099 70.66667,1.1754 88.33333,1.5626 L 848,415.14785 l 0,3.59981 -17.66667,-0.47015 c -17.66666,-0.47015 -53,-1.41046 -88.33333,-2.10882 -35.33333,-0.69835 -70.66667,-1.15474 -106,-1.06017 -35.33333,0.0946 -70.66667,0.7401 -106,2.44935 -35.33333,1.70924 -70.66667,4.48218 -106,7.38178 -35.33333,2.89962 -70.66667,5.92588 -106,7.42086 -35.33333,1.495 -70.66667,1.45874 -106,0.42135 -35.33333,-1.03739 -70.66667,-3.07591 -106,-5.88533 -35.333333,-2.8094 -70.666667,-6.38968 -88.333333,-8.17982 L 0,416.9266 z"
   class="layer"
   id="path3186"
   inkscape:connector-curvature="0" /><path
   style="fill:#bf69a2;fill-opacity:0.9"
   title="Americas"
   d="m 0,367.84491 17.666667,1.43288 c 17.666666,1.43289 53,4.29863 88.333333,-0.98751 35.33333,-5.28615 70.66667,-18.72421 106,-25.14591 35.33333,-6.42169 70.66667,-5.82705 106,-5.92483 35.33333,-0.0978 70.66667,-0.88799 106,-2.92124 35.33333,-2.03325 70.66667,-5.30954 106,-6.08607 35.33333,-0.77652 70.66667,0.94672 106,1.73767 35.33333,0.79096 70.66667,0.64963 106,0.83923 35.33333,0.1896 70.66667,0.7101 88.33333,0.97035 L 848,332.01972 l 0,33.07538 -17.66667,-0.94149 c -17.66666,-0.94148 -53,-2.82445 -88.33333,-3.79927 -35.33333,-0.97483 -70.66667,-1.0415 -106,-2.07033 -35.33333,-1.02881 -70.66667,-3.01976 -106,-1.84615 -35.33333,1.17363 -70.66667,5.51183 -106,8.67666 -35.33333,3.16482 -70.66667,5.15627 -106,5.67253 -35.33333,0.51627 -70.66667,-0.44262 -106,5.37696 -35.33333,5.8196 -70.66667,18.41767 -106,22.66431 -35.333333,4.24663 -70.666667,0.14182 -88.333333,-1.91058 L 0,394.86533 z"
   class="layer"
   id="path3188"
   inkscape:connector-curvature="0" /><defs
   id="defs3190"><path
     d="M0,420.5910683882422L17.666666666666664,421.6301085811576C35.33333333333333,422.66914877407294,70.66666666666666,424.7472291599038,105.99999999999999,426.268027850835C141.33333333333331,427.7888265417663,176.66666666666663,428.75234353779797,211.99999999999997,423.71057391004786C247.33333333333331,418.66880428229774,282.66666666666663,407.62174803076573,318,400.4292897507072C353.3333333333333,393.2368314706486,388.66666666666663,389.8989711620635,423.99999999999994,385.6633122884191C459.33333333333326,381.4276534147747,494.66666666666663,376.294195976071,530,374.7010540123354C565.3333333333333,373.1079120485998,600.6666666666666,375.05508555983226,636,376.06524144236056C671.3333333333333,377.07539732488885,706.6666666666666,377.14853557871305,742,378.147826720637C777.3333333333333,379.147117862561,812.6666666666665,381.07256189258476,830.3333333333333,382.03528390759664L848,382.99800592260857"
     id="path-Eastern_Europe" /><path
     d="M0,428.3564429899236L17.666666666666664,433.0693554691381C35.33333333333333,437.7822679483527,70.66666666666666,447.2080929067818,105.99999999999999,454.4755443963775C141.33333333333331,461.7429958859732,176.66666666666663,466.8520739067355,211.99999999999997,469.29876049209327C247.33333333333331,471.74544707745105,282.66666666666663,471.5297422274043,318,466.98934062949246C353.3333333333333,462.4489390315806,388.66666666666663,453.5838406858036,423.99999999999994,444.92040252538965C459.33333333333326,436.2569643649757,494.66666666666663,427.7951863899249,530,422.37182587265727C565.3333333333333,416.9484653553896,600.6666666666666,414.56352229590516,636,413.39755013349054C671.3333333333333,412.2315779710759,706.6666666666666,412.2845767057311,742,413.33766156333013C777.3333333333333,414.3907464209292,812.6666666666665,416.443917401472,830.3333333333333,417.4705028917434L848,418.49708838201485"
     id="path-Africa" /><path
     d="M0,267.7257580475266L17.666666666666664,264.9504793073065C35.33333333333333,262.17520056708645,70.66666666666666,256.6246430866463,105.99999999999999,251.07620555559237C141.33333333333331,245.5277680245384,176.66666666666663,239.98145044287065,211.99999999999997,237.45897566695592C247.33333333333331,234.9365008910412,282.66666666666663,235.4378689208795,318,235.8804083552505C353.3333333333333,236.32294778962154,388.66666666666663,236.70665862852525,423.99999999999994,236.6295454696019C459.33333333333326,236.55243231067857,494.66666666666663,236.01449515392818,530,236.4413999615759C565.3333333333333,236.86830476922364,600.6666666666666,238.26005154126946,636,238.17975845826683C671.3333333333333,238.09946537526417,706.6666666666666,236.54713243721304,742,235.3679105911346C777.3333333333333,234.1886887450562,812.6666666666665,233.3825779909505,830.3333333333333,232.97952261389764L848,232.57646723684476"
     id="path-Western_Europe" /><path
     d="M0,319.2150887397563L17.666666666666664,318.4277925364531C35.33333333333333,317.64049633315005,70.66666666666666,316.0659039265438,105.99999999999999,313.8222024949155C141.33333333333331,311.57850106328715,176.66666666666663,308.66569060663676,211.99999999999997,307.6094258249584C247.33333333333331,306.55316104328006,282.66666666666663,307.35344193657374,318,307.4284351461108C353.3333333333333,307.503428355648,388.66666666666663,306.85313388142856,423.99999999999994,305.1524044863429C459.33333333333326,303.4516750912572,494.66666666666663,300.70051077530525,530,300.22087222667557C565.3333333333333,299.7412336780459,600.6666666666666,301.5331208967386,636,302.0721180281821C671.3333333333333,302.61111515962557,706.6666666666666,301.89722220381987,742,301.6205688089197C777.3333333333333,301.3439154140195,812.6666666666665,301.50450158002474,830.3333333333333,301.58479466302737L848,301.66508774603005"
     id="path-Southern_Europe" /><path
     d="M0,141.04076265179168L17.666666666666664,136.6707519857963C35.33333333333333,132.30074131980098,70.66666666666666,123.56071998781029,105.99999999999999,116.15255685770501C141.33333333333331,108.74439372759974,176.66666666666663,102.6680887993799,211.99999999999997,99.61297674018032C247.33333333333331,96.55786468098073,282.66666666666663,96.5239454908014,318,98.96957210146607C353.3333333333333,101.41519871213075,388.66666666666663,106.34037112363943,423.99999999999994,111.01273957084274C459.33333333333326,115.68510801804607,494.66666666666663,120.10467250094402,530,122.51796988346902C565.3333333333333,124.93126726599402,600.6666666666666,125.33829754814606,636,124.90768282907247C671.3333333333333,124.4770681099989,706.6666666666666,123.20880838969971,742,121.55763281151664C777.3333333333333,119.90645723333355,812.6666666666665,117.87236579726658,830.3333333333333,116.85532007923311L848,115.83827436119964"
     id="path-UK" /><path
     d="M0,408.4930472284974L17.666666666666664,414.77896215227855C35.33333333333333,421.0648770760598,70.66666666666666,433.6367069236222,105.99999999999999,441.8329612380504C141.33333333333331,450.0292155524787,176.66666666666663,453.8498943337728,211.99999999999997,455.59381769760245C247.33333333333331,457.3377410614321,282.66666666666663,457.00490900779744,318,452.8304636726798C353.3333333333333,448.65601833756216,388.66666666666663,440.63995972096166,423.99999999999994,429.86770190861694C459.33333333333326,419.09544409627216,494.66666666666663,405.5669870881832,530,399.7662755801705C565.3333333333333,393.96556407215775,600.6666666666666,395.8925980642212,636,396.8818194465607C671.3333333333333,397.87104082890016,706.6666666666666,397.9224496015157,742,398.8843766355078C777.3333333333333,399.84630366949983,812.6666666666665,401.7187489648684,830.3333333333333,402.6549716125527L848,403.591194260237"
     id="path-Northern_Europe" /><path
     d="M0,354.4327479181435L17.666666666666664,355.3644656733821C35.33333333333333,356.2961834286207,70.66666666666666,358.15961893909787,105.99999999999999,364.74047182123525C141.33333333333331,371.32132470337274,176.66666666666663,382.61959495717036,211.99999999999997,394.37153437961666C247.33333333333331,406.1234738020629,282.66666666666663,418.3290823931578,318,421.5055615547179C353.3333333333333,424.6820407162778,388.66666666666663,418.829390448303,423.99999999999994,414.8971493305596C459.33333333333326,410.96490821281634,494.66666666666663,408.9530762453046,530,411.6944357953453C565.3333333333333,414.43579534538605,600.6666666666666,421.93034641297936,636,426.18004995130735C671.3333333333333,430.42975348963546,706.6666666666666,431.43460949869825,742,433.2792304583728C777.3333333333333,435.12385141804737,812.6666666666665,437.8082373283337,830.3333333333333,439.1504302834769L848,440.4926232386201"
     id="path-Ireland_(domestic)" /><path
     d="M0,431.620635057338L17.666666666666664,436.57707672229327C35.33333333333333,441.5335183872485,70.66666666666666,451.446401717159,105.99999999999999,459.21972612903863C141.33333333333331,466.9930505409183,176.66666666666663,472.6268160347671,211.99999999999997,475.4770879845243C247.33333333333331,478.3273599342815,282.66666666666663,478.3941383399471,318,474.0593718324975C353.3333333333333,469.72460532504783,388.66666666666663,460.98829390448293,423.99999999999994,452.61608379099937C459.33333333333326,444.24387367751586,494.66666666666663,436.23576487111364,530,431.24646399067217C565.3333333333333,426.2571631102307,600.6666666666666,424.28667015574996,636,423.6461804474417C671.3333333333333,423.0056907391335,706.6666666666666,423.6952042769978,742,425.2615818797325C777.3333333333333,426.8279594824673,812.6666666666665,429.2712011500725,830.3333333333333,430.49282198387505L848,431.7144428176777"
     id="path-Asia" /><path
     d="M0,386.54044134696284L17.666666666666664,388.39645703458825C35.33333333333333,390.2524727222137,70.66666666666666,393.96450409746467,105.99999999999999,388.88802029851536C141.33333333333331,383.81153649956605,176.66666666666663,369.94653752641653,211.99999999999997,363.42769316382567C247.33333333333331,356.90884880123485,282.66666666666663,357.7361590492027,318,357.40915685638004C353.3333333333333,357.0821546635574,388.66666666666663,355.60084002994427,423.99999999999994,352.8327161189026C459.33333333333326,350.064592207861,494.66666666666663,346.0096590193909,530,344.971148813822C565.3333333333333,343.9326386082532,600.6666666666666,345.9105513855857,636,346.87963324875614C671.3333333333333,347.8487151119267,706.6666666666666,347.8089660609353,742,348.4290512564012C777.3333333333333,349.0491364518672,812.6666666666665,350.3290558937905,830.3333333333333,350.9690156147521L848,351.6089753357138"
     id="path-Americas" /></defs><text
   class="label"
   dy="5.5136498e-039"
   id="text3201"
   transform="matrix(1,0,0,0.9389158,0,18.426215)"><textPath
     style="font-size:11px;font-weight:normal;text-anchor:middle;font-family:'Arial, Helvetica'"
     startOffset="38%"
     xlink:href="#path-Eastern_Europe"
     id="textPath3203">Eastern Europe</textPath></text>

<text
   class="label"
   dy="5.5136498e-039"
   id="text3205"
   transform="matrix(1,0,0,0.9389158,0,18.426215)"><textPath
     style="font-size:11px;font-weight:normal;text-anchor:end;font-family:'Arial, Helvetica'"
     startOffset="94.999999%"
     xlink:href="#path-Africa"
     id="textPath3207">Africa</textPath></text>

<text
   class="label"
   dy="5.5136498e-039"
   id="text3209"
   transform="matrix(1,0,0,0.9389158,0,18.426215)"><textPath
     style="font-size:11px;font-weight:normal;text-anchor:middle;font-family:'Arial, Helvetica'"
     startOffset="38%"
     xlink:href="#path-Western_Europe"
     id="textPath3211">Western Europe</textPath></text>

<text
   class="label"
   dy="5.5136498e-039"
   id="text3213"
   transform="matrix(1,0,0,0.9389158,0,18.426215)"><textPath
     style="font-size:11px;font-weight:normal;text-anchor:middle;font-family:'Arial, Helvetica'"
     startOffset="25%"
     xlink:href="#path-Southern_Europe"
     id="textPath3215">Southern Europe</textPath></text>

<text
   class="label"
   dy="5.5136498e-039"
   id="text3217"
   transform="matrix(1,0,0,0.9389158,0,18.426215)"><textPath
     style="font-size:11px;font-weight:normal;text-anchor:middle;font-family:'Arial, Helvetica'"
     startOffset="13%"
     xlink:href="#path-UK"
     id="textPath3219">UK</textPath></text>

<text
   class="label"
   dy="5.5136498e-039"
   id="text3221"
   transform="matrix(1,0,0,0.9389158,0,18.426215)"><textPath
     style="font-size:11px;font-weight:normal;text-anchor:middle;font-family:'Arial, Helvetica'"
     startOffset="25%"
     xlink:href="#path-Northern_Europe"
     id="textPath3223">Northern Europe</textPath></text>

<text
   class="label"
   dy="5.5136498e-039"
   id="text3225"
   transform="matrix(1,0,0,0.9389158,0,18.426215)"><textPath
     style="font-size:11px;font-weight:normal;text-anchor:middle;font-family:'Arial, Helvetica'"
     startOffset="13%"
     xlink:href="#path-Ireland_(domestic)"
     id="textPath3227">Ireland (domestic)</textPath></text>

<text
   class="label"
   dy="5.5136498e-039"
   id="text3229"
   transform="matrix(1,0,0,0.9389158,0,18.426215)"><textPath
     style="font-size:11px;font-weight:normal;text-anchor:end;font-family:'Arial, Helvetica'"
     startOffset="94.999999%"
     xlink:href="#path-Asia"
     id="textPath3231">Asia</textPath></text>

<text
   class="label"
   dy="5.5136498e-039"
   id="text3233"
   transform="matrix(1,0,0,0.9389158,0,18.426215)"><textPath
     style="font-size:11px;font-weight:normal;text-anchor:middle;font-family:'Arial, Helvetica'"
     startOffset="38%"
     xlink:href="#path-Americas"
     id="textPath3235">Americas</textPath></text>

</svg>