<svg version="1.1" id="Layer_1" xmlns="http://www.w3.org/2000/svg" xmlns:xlink="http://www.w3.org/1999/xlink" x="0px" y="0px"
width="847px" height="500px" viewBox="0 0 847 500" preserveAspectRatio="xMinYMin meet" enable-background="new 0 0 847 500" xml:space="preserve"><g transform="translate(0,10)"><g><path class="link" d="M10,86.90349521010891C423.5,86.90349521010891 423.5,61.90349521010894 837,61.90349521010894" style="stroke-width: 123.806990420218px; fill: none; stroke: rgb(191, 191, 105); stroke-opacity: 0.4;"></path><path class="link" d="M10,180.1860434392953C423.5,180.1860434392953 423.5,214.74347392963878 837,214.74347392963878" style="stroke-width: 62.7581060381549px; fill: none; stroke: rgb(191, 191, 105); stroke-opacity: 0.4;"></path><path class="link" d="M10,234.8797082147613C423.5,234.8797082147613 423.5,289.20544580085624 837,289.20544580085624" style="stroke-width: 46.6292235127772px; fill: none; stroke: rgb(191, 191, 105); stroke-opacity: 0.4;"></path><path class="link" d="M10,269.9321417222184C423.5,269.9321417222184 423.5,341.5828599380867 837,341.5828599380867" style="stroke-width: 23.475643502137px; fill: none; stroke: rgb(191, 191, 105); stroke-opacity: 0.4;"></path><path class="link" d="M10,354.38450881747C423.5,354.38450881747 423.5,134.44508317593164 837,134.44508317593164" style="stroke-width: 21.2761855114275px; fill: none; stroke: rgb(191, 105, 105); stroke-opacity: 0.4;"></path><path class="link" d="M10,291.3643602112336C423.5,291.3643602112336 423.5,382.3188571387765 837,382.3188571387765" style="stroke-width: 19.3887934758935px; fill: none; stroke: rgb(191, 191, 105); stroke-opacity: 0.4;"></path><path class="link" d="M10,401.1027818144815C423.5,401.1027818144815 423.5,152.96319835469117 837,152.96319835469117" style="stroke-width: 15.7600448460915px; fill: none; stroke: rgb(191, 105, 191); stroke-opacity: 0.4;"></path><path class="link" d="M10,317.72304325005615C423.5,317.72304325005615 423.5,441.810732355241 837,441.810732355241" style="stroke-width: 13.4349035416272px; fill: none; stroke: rgb(191, 191, 105); stroke-opacity: 0.4;"></path><path class="link" d="M10,306.0321742142114C423.5,306.0321742142114 423.5,411.1931345489861 837,411.1931345489861" style="stroke-width: 9.94683453006224px; fill: none; stroke: rgb(191, 191, 105); stroke-opacity: 0.4;"></path><path class="link" d="M10,419.1049527080827C423.5,419.1049527080827 423.5,357.95561093873295 837,357.95561093873295" style="stroke-width: 9.26985849915556px; fill: none; stroke: rgb(191, 105, 191); stroke-opacity: 0.4;"></path><path class="link" d="M10,442.2902748965434C423.5,442.2902748965434 423.5,164.85294695235817 837,164.85294695235817" style="stroke-width: 8.01945234924251px; fill: none; stroke: rgb(105, 105, 191); stroke-opacity: 0.4;"></path><path class="link" d="M10,367.7878130032242C423.5,367.7878130032242 423.5,248.88773837875667 837,248.88773837875667" style="stroke-width: 5.53042286008091px; fill: none; stroke: rgb(191, 105, 105); stroke-opacity: 0.4;"></path><path class="link" d="M10,326.8274068176056C423.5,326.8274068176056 423.5,461.6074253130478 837,461.6074253130478" style="stroke-width: 4.77382359347161px; fill: none; stroke: rgb(191, 191, 105); stroke-opacity: 0.4;"></path><path class="link" d="M10,331.4716194937676C423.5,331.4716194937676 423.5,477.630226836958 837,477.630226836958" style="stroke-width: 4.51460175885228px; fill: none; stroke: rgb(191, 191, 105); stroke-opacity: 0.4;"></path><path class="link" d="M10,372.7623014328612C423.5,372.7623014328612 423.5,314.7293345568413 837,314.7293345568413" style="stroke-width: 4.41855399919306px; fill: none; stroke: rgb(191, 105, 105); stroke-opacity: 0.4;"></path><path class="link" d="M10,379.74611613566657C423.5,379.74611613566657 423.5,418.0964333789173 837,418.0964333789173" style="stroke-width: 3.85976312980016px; fill: none; stroke: rgb(191, 105, 105); stroke-opacity: 0.4;"></path><path class="link" d="M10,410.4374457722919C423.5,410.4374457722919 423.5,253.10759134356178 837,253.10759134356178" style="stroke-width: 2.90928306952929px; fill: none; stroke: rgb(191, 105, 191); stroke-opacity: 0.4;"></path><path class="link" d="M10,458.01440002285153C423.5,458.01440002285153 423.5,170.2864294156083 837,170.2864294156083" style="stroke-width: 2.84751257725775px; fill: none; stroke: rgb(105, 191, 191); stroke-opacity: 0.4;"></path><path class="link" d="M10,376.39390650161215C423.5,376.39390650161215 423.5,393.43558194587763 837,393.43558194587763" style="stroke-width: 2.84465613830877px; fill: none; stroke: rgb(191, 105, 105); stroke-opacity: 0.4;"></path><path class="link" d="M10,426.4493928281959C423.5,426.4493928281959 423.5,421.37401854542986 837,421.37401854542986" style="stroke-width: 2.69540720322492px; fill: none; stroke: rgb(191, 105, 191); stroke-opacity: 0.4;"></path><path class="link" d="M10,413.1810553827807C423.5,413.1810553827807 423.5,318.2275796321621 837,318.2275796321621" style="stroke-width: 2.57793615144839px; fill: none; stroke: rgb(191, 105, 191); stroke-opacity: 0.4;"></path><path class="link" d="M10,473.1709864354856C423.5,473.1709864354856 423.5,172.53730330739924 837,172.53730330739924" style="stroke-width: 1.65423520632416px; fill: none; stroke: rgb(105, 191, 105); stroke-opacity: 0.4;"></path><path class="link" d="M10,424.420785592122C423.5,424.420785592122 423.5,395.53881364949353 837,395.53881364949353" style="stroke-width: 1.36180726892302px; fill: none; stroke: rgb(191, 105, 191); stroke-opacity: 0.4;"></path><path class="link" d="M10,461.6626081429934C423.5,461.6626081429934 423.5,423.5250956014411 837,423.5250956014411" style="stroke-width: 1.33824164759399px; fill: none; stroke: rgb(105, 191, 191); stroke-opacity: 0.4;"></path><path class="link" d="M10,460.0697863740722C423.5,460.0697863740722 423.5,255.19993287368467 837,255.19993287368467" style="stroke-width: 1.26326012518344px; fill: none; stroke: rgb(105, 191, 191); stroke-opacity: 0.4;"></path><path class="link" d="M10,382.7352009683328C423.5,382.7352009683328 423.5,464.47832498420024 837,464.47832498420024" style="stroke-width: 1px; fill: none; stroke: rgb(191, 105, 105); stroke-opacity: 0.4;"></path><path class="link" d="M10,474.5208323663098C423.5,474.5208323663098 423.5,424.64374850483273 837,424.64374850483273" style="stroke-width: 1px; fill: none; stroke: rgb(105, 191, 105); stroke-opacity: 0.4;"></path><path class="link" d="M10,381.9636053972414C423.5,381.9636053972414 423.5,448.81579182272935 837,448.81579182272935" style="stroke-width: 1px; fill: none; stroke: rgb(191, 105, 105); stroke-opacity: 0.4;"></path><path class="link" d="M10,428.0873820379978C423.5,428.0873820379978 423.5,465.15012371951195 837,465.15012371951195" style="stroke-width: 1px; fill: none; stroke: rgb(191, 105, 191); stroke-opacity: 0.4;"></path><path class="link" d="M10,460.8472733504958C423.5,460.8472733504958 423.5,319.68525613331 837,319.68525613331" style="stroke-width: 1px; fill: none; stroke: rgb(105, 191, 191); stroke-opacity: 0.4;"></path><path class="link" d="M10,446.4296119884743C423.5,446.4296119884743 423.5,422.7888484623432 837,422.7888484623432" style="stroke-width: 1px; fill: none; stroke: rgb(105, 105, 191); stroke-opacity: 0.4;"></path><path class="link" d="M10,427.8483338034556C423.5,427.8483338034556 423.5,449.1546368930513 837,449.1546368930513" style="stroke-width: 1px; fill: none; stroke: rgb(191, 105, 191); stroke-opacity: 0.4;"></path><path class="link" d="M10,446.55600941196633C423.5,446.55600941196633 423.5,489.94108594667733 837,489.94108594667733" style="stroke-width: 1px; fill: none; stroke: rgb(105, 105, 191); stroke-opacity: 0.4;"></path><path class="link" d="M10,474.0277395927432C423.5,474.0277395927432 423.5,255.861198490372 837,255.861198490372" style="stroke-width: 1px; fill: none; stroke: rgb(105, 191, 105); stroke-opacity: 0.4;"></path><path class="link" d="M10,446.3457040943482C423.5,446.3457040943482 423.5,362.60732176713594 837,362.60732176713594" style="stroke-width: 1px; fill: none; stroke: rgb(105, 105, 191); stroke-opacity: 0.4;"></path><path class="link" d="M10,446.508164059571C423.5,446.508164059571 423.5,465.3493603362028 837,465.3493603362028" style="stroke-width: 1px; fill: none; stroke: rgb(105, 105, 191); stroke-opacity: 0.4;"></path><path class="link" d="M10,446.3174967597271C423.5,446.3174967597271 423.5,319.52797346368214 837,319.52797346368214" style="stroke-width: 1px; fill: none; stroke: rgb(105, 105, 191); stroke-opacity: 0.4;"></path><path class="link" d="M10,474.992501847759C423.5,474.992501847759 423.5,489.9832184211747 837,489.9832184211747" style="stroke-width: 1px; fill: none; stroke: rgb(105, 191, 105); stroke-opacity: 0.4;"></path><path class="link" d="M10,474.9776840707112C423.5,474.9776840707112 423.5,449.2131938915053 837,449.2131938915053" style="stroke-width: 1px; fill: none; stroke: rgb(105, 191, 105); stroke-opacity: 0.4;"></path><path class="link" d="M10,474.064337716777C423.5,474.064337716777 423.5,319.8380756170801 837,319.8380756170801" style="stroke-width: 1px; fill: none; stroke: rgb(105, 191, 105); stroke-opacity: 0.4;"></path><path class="link" d="M10,462.33779889955696C423.5,462.33779889955696 423.5,465.3668560247653 837,465.3668560247653" style="stroke-width: 1px; fill: none; stroke: rgb(105, 191, 191); stroke-opacity: 0.4;"></path><path class="link" d="M10,333.74177434846405C423.5,333.74177434846405 423.5,499.9953582867078 837,499.9953582867078" style="stroke-width: 1px; fill: none; stroke: rgb(191, 191, 105); stroke-opacity: 0.4;"></path><path class="link" d="M10,333.7330265041828C423.5,333.7330265041828 423.5,489.89341912171636 837,489.89341912171636" style="stroke-width: 1px; fill: none; stroke: rgb(191, 191, 105); stroke-opacity: 0.4;"></path><path class="link" d="M10,446.3030360375479C423.5,446.3030360375479 423.5,254.56526784470972 837,254.56526784470972" style="stroke-width: 1px; fill: none; stroke: rgb(105, 105, 191); stroke-opacity: 0.4;"></path><path class="link" d="M10,428.2778708104074C423.5,428.2778708104074 423.5,489.90377371290634 837,489.90377371290634" style="stroke-width: 1px; fill: none; stroke: rgb(191, 105, 191); stroke-opacity: 0.4;"></path><path class="link" d="M10,383.22097411709257C423.5,383.22097411709257 423.5,489.8993105270486 837,489.8993105270486" style="stroke-width: 1px; fill: none; stroke: rgb(191, 105, 105); stroke-opacity: 0.4;"></path><path class="link" d="M10,446.5204824525385C423.5,446.5204824525385 423.5,479.88842035355566 837,479.88842035355566" style="stroke-width: 1px; fill: none; stroke: rgb(105, 105, 191); stroke-opacity: 0.4;"></path><path class="link" d="M10,460.99330879176205C423.5,460.99330879176205 423.5,362.62428187339543 837,362.62428187339543" style="stroke-width: 1px; fill: none; stroke: rgb(105, 191, 191); stroke-opacity: 0.4;"></path></g><g><g class="node" transform="translate(0,343.74641606175624)"><rect height="39.476343329679466" width="10"><title>Cork
11,056</title></rect><text x="16" y="19.738171664839733" dy=".35em" text-anchor="start" style="font-size: 11px; font-family: Arial, Helvetica; pointer-events: none;">Cork</text></g><g class="node" transform="translate(0,24.99999999999997)"><rect height="308.74641606175624" width="10"><title>Dublin
86,470</title></rect><text x="16" y="154.37320803087812" dy=".35em" text-anchor="start" style="font-size: 11px; font-family: Arial, Helvetica; pointer-events: none;">Dublin</text></g><g class="node" transform="translate(0,472.3438688323235)"><rect height="2.6561311676765373" width="10"><title>Galway
744</title></rect><text x="16" y="1.3280655838382687" dy=".35em" text-anchor="start" style="font-size: 11px; font-family: Arial, Helvetica; pointer-events: none;">Galway</text></g><g class="node" transform="translate(0,456.5906437342227)"><rect height="5.753225098100826" width="10"><title>Kerry
1,611</title></rect><text x="16" y="2.876612549050413" dy=".35em" text-anchor="start" style="font-size: 11px; font-family: Arial, Helvetica; pointer-events: none;">Kerry</text></g><g class="node" transform="translate(0,438.2805487219221)"><rect height="8.310095012300543" width="10"><title>Knock
2,327</title></rect><text x="16" y="4.155047506150272" dy=".35em" text-anchor="start" style="font-size: 11px; font-family: Arial, Helvetica; pointer-events: none;">Knock</text></g><g class="node" transform="translate(0,393.2227593914357)"><rect height="35.05778933048642" width="10"><title>Shannon
9,819</title></rect><text x="16" y="17.52889466524321" dy=".35em" text-anchor="start" style="font-size: 11px; font-family: Arial, Helvetica; pointer-events: none;">Shannon</text></g><g class="node" transform="translate(837,459.220513516312)"><rect height="6.152412441219843" width="10" style="fill: rgb(102, 102, 102);"><title>Africa
1,723</title></rect><text x="-6" y="3.0762062206099214" dy=".35em" text-anchor="end" style="font-size: 11px; font-family: Arial, Helvetica; pointer-events: none;">Africa</text></g><g class="node" transform="translate(837,329.8450381870182)"><rect height="32.7794222138116" width="10" style="fill: rgb(102, 102, 102);"><title>Americas
9,181</title></rect><text x="-6" y="16.3897111069058" dy=".35em" text-anchor="end" style="font-size: 11px; font-family: Arial, Helvetica; pointer-events: none;">Americas</text></g><g class="node" transform="translate(837,475.37292595753183)"><rect height="4.516387033195391" width="10" style="fill: rgb(102, 102, 102);"><title>Asia
1,265</title></rect><text x="-6" y="2.2581935165976956" dy=".35em" text-anchor="end" style="font-size: 11px; font-family: Arial, Helvetica; pointer-events: none;">Asia</text></g><g class="node" transform="translate(837,372.6244604008298)"><rect height="23.59525688312524" width="10" style="fill: rgb(102, 102, 102);"><title>Eastern Europe
6,608</title></rect><text x="-6" y="11.79762844156262" dy=".35em" text-anchor="end" style="font-size: 11px; font-family: Arial, Helvetica; pointer-events: none;">Eastern Europe</text></g><g class="node" transform="translate(837,499.99071657341574)"><rect height="0.00928342658416319" width="10" style="fill: rgb(102, 102, 102);"><title>Europe (other)
3</title></rect><text x="-6" y="0.004641713292081595" dy=".35em" text-anchor="end" style="font-size: 11px; font-family: Arial, Helvetica; pointer-events: none;">Europe (other)</text></g><g class="node" transform="translate(837,406.219717283955)"><rect height="18.873563300472384" width="10" style="fill: rgb(102, 102, 102);"><title>Ireland (domestic)
5,286</title></rect><text x="-6" y="9.436781650236192" dy=".35em" text-anchor="end" style="font-size: 11px; font-family: Arial, Helvetica; pointer-events: none;">Ireland (domestic)</text></g><g class="node" transform="translate(837,435.09328058442736)"><rect height="14.127232931884642" width="10" style="fill: rgb(102, 102, 102);"><title>Northern Europe
3,957</title></rect><text x="-6" y="7.063616465942321" dy=".35em" text-anchor="end" style="font-size: 11px; font-family: Arial, Helvetica; pointer-events: none;">Northern Europe</text></g><g class="node" transform="translate(837,489.8893129907272)"><rect height="0.10140358268855175" width="10" style="fill: rgb(102, 102, 102);"><title>Oceania and Polar
28</title></rect><text x="-6" y="0.050701791344275875" dy=".35em" text-anchor="end" style="font-size: 11px; font-family: Arial, Helvetica; pointer-events: none;">Oceania and Polar</text></g><g class="node" transform="translate(837,265.8908340444676)"><rect height="53.954204142550566" width="10" style="fill: rgb(102, 102, 102);"><title>Southern Europe
15,111</title></rect><text x="-6" y="26.977102071275283" dy=".35em" text-anchor="end" style="font-size: 11px; font-family: Arial, Helvetica; pointer-events: none;">Southern Europe</text></g><g class="node" transform="translate(837,0)"><rect height="173.36442091056134" width="10" style="fill: rgb(102, 102, 102);"><title>UK
48,554</title></rect><text x="-6" y="86.68221045528067" dy=".35em" text-anchor="end" style="font-size: 11px; font-family: Arial, Helvetica; pointer-events: none;">UK</text></g><g class="node" transform="translate(837,183.36442091056134)"><rect height="72.52641313390629" width="10" style="fill: rgb(102, 102, 102);"><title>Western Europe
20,312</title></rect><text x="-6" y="36.263206566953144" dy=".35em" text-anchor="end" style="font-size: 11px; font-family: Arial, Helvetica; pointer-events: none;">Western Europe</text></g></g></g></svg>